<svg xmlns="http://www.w3.org/2000/svg" width="3.5in" height="3.5in" viewBox="0 0 252 251.9982">
  <g>
    <path d="M91.087,81.4068,81.1206,93.75a33.6147,33.6147,0,0,0-22.8942-8.9635q-15.6247,0-23.03,10.3592-7.4091,10.3605-7.408,27.8466,0,17.1934,7.408,27.5526,7.4042,10.3587,22.6259,10.3593a30.48,30.48,0,0,0,13.1983-2.8655A36.4606,36.4606,0,0,0,81.66,150.4706l10.64,12.6381a45.8887,45.8887,0,0,1-15.1511,10.7261,47.6433,47.6433,0,0,1-19.8649,4.1143q-15.2207,0-25.9925-6.98a43.5736,43.5736,0,0,1-16.2967-19.3969q-5.5232-12.4146-5.521-28.58,0-16.4567,5.5889-28.8014a43.0262,43.0262,0,0,1,16.43-19.177q10.8393-6.8328,26.0605-6.8329a50.6382,50.6382,0,0,1,18.854,3.5276A39.9771,39.9771,0,0,1,91.087,81.4068Z" style="fill: #989898"/>
    <path d="M181.9249,81.4068,171.9585,93.75a33.6147,33.6147,0,0,0-22.8942-8.9635q-15.6249,0-23.03,10.3592-7.4091,10.3605-7.408,27.8466,0,17.1934,7.408,27.5526,7.4042,10.3587,22.6259,10.3593a30.48,30.48,0,0,0,13.1984-2.8655,36.46,36.46,0,0,0,10.6388-7.5678l10.64,12.6381a45.8887,45.8887,0,0,1-15.1511,10.7261,47.6433,47.6433,0,0,1-19.8649,4.1143q-15.2207,0-25.9926-6.98a43.5742,43.5742,0,0,1-16.2967-19.3969q-5.5231-12.4146-5.5209-28.58,0-16.4567,5.5888-28.8014a43.0268,43.0268,0,0,1,16.43-19.177q10.8393-6.8328,26.0605-6.8329a50.6375,50.6375,0,0,1,18.854,3.5276A39.9767,39.9767,0,0,1,181.9249,81.4068Z" style="fill: #50a7dd"/>
    <path d="M228.3241,160.61h11.1777v14.5476h-39.594V160.61h11.1777V85.2271H199.9078V71.12h39.594V85.2271H228.3241Z" style="fill: #50a7dd"/>
  </g>
</svg>
