<svg xmlns="http://www.w3.org/2000/svg" width="4.5639in" height="3.5in" viewBox="0 0 328.6035 251.9982">
  <path d="M414.9825,31.787a90.34,90.34,0,0,1-90.34-90.34,90.34,90.34,0,0,1,90.34-90.34,90.34,90.34,0,0,1,90.34,90.34A90.34,90.34,0,0,1,414.9825,31.787Z" style="fill: #06a900"/>
  <g>
    <g>
      <path d="M245.36,91.0934q-.8265-2.91-1.7917-5.7611a121.9738,121.9738,0,0,0-8.36-19.1269q-2.1243-3.9106-4.52-7.6457-.7977-1.2442-1.6244-2.468-1.6533-2.4471-3.42-4.8092c-.8476-1.1336-1.7213-2.2464-2.6069-3.3492q-3.2835-4.089-6.8955-7.89-2.031-2.13-4.1616-4.1617c-.4284-.4084-.8655-.8076-1.3-1.21-2.5678-.2194-5.1644-.3379-7.7891-.3379a89.997,89.997,0,0,0-37.7709,8.257c1.1307.5212,2.2515,1.06,3.3565,1.6261q1.9479.9977,3.84,2.0859.9456.5439,1.8772,1.11,1.678,1.02,3.3052,2.1128,2.8917,1.9337,5.6249,4.0766,2.56,2.0116,4.9679,4.2,1.6042,1.458,3.1375,2.9913t2.9912,3.1374q2.1873,2.4066,4.2,4.9678a90.5809,90.5809,0,0,1,6.19,8.93q.5658.9314,1.11,1.8772,1.0876,1.8918,2.0859,3.84a90.5153,90.5153,0,0,1,0,82.2549q-.9978,1.9477-2.0859,3.84-.5439.9459-1.11,1.8772-1.6975,2.7939-3.5884,5.4522-1.26,1.7711-2.6011,3.478-2.0115,2.56-4.2,4.9678-1.4581,1.6044-2.9912,3.1375t-3.1375,2.9913q-3.2087,2.9163-6.6908,5.5213-1.9115,1.43-3.902,2.7558a79.1671,79.1671,0,0,0,45.5379,1.5924A122.8848,122.8848,0,0,0,245.36,91.0934Z" style="fill: #5dcdff"/>
      <path d="M210.68,34.6719c-.2856-.2645-.5667-.5338-.8547-.7956q-4.3566-3.96-9.0846-7.4969A122.7177,122.7177,0,0,0,183.192,15.43q-1.3224-.6772-2.6631-1.3234A121.88,121.88,0,0,0,165.12,7.9455a122.0948,122.0948,0,0,0-27.0283,12.5682q-2.2869,1.4258-4.5058,2.9482-3.3277,2.2828-6.4945,4.7758,3.1651-2.4914,6.4945-4.7758,2.2182-1.5219,4.5058-2.9482A122.0933,122.0933,0,0,1,165.12,7.9454,121.8461,121.8461,0,0,0,146.3661,3.48,122.8354,122.8354,0,0,0,34.5974,44.4a122.6721,122.6721,0,0,0,0,160.5485q2.8918,3.3383,6.0155,6.462A123.3059,123.3059,0,0,0,56.3407,224.707q2.405,1.71,4.894,3.3062,1.2444.7977,2.509,1.5661,2.529,1.5368,5.1368,2.9536a122.0229,122.0229,0,0,0,16.2928,7.3617q2.8182,1.0319,5.7,1.9285a121.9743,121.9743,0,0,0,20.8536,4.5291q3.07.39,6.1851.6279,4.672.3555,9.4377.3577a123.5692,123.5692,0,0,0,19.0169-1.4692,133.7331,133.7331,0,0,1-37.9895-26.68q-3.9222-3.9223-7.4692-8.11A90.4039,90.4039,0,0,1,46.8923,83.5467q.9978-1.9477,2.0859-3.84t2.2633-3.725q1.7625-2.7492,3.715-5.3595,2.6015-3.4782,5.5214-6.6907,1.4583-1.6042,2.9912-3.1374t3.1375-2.9913q2.4064-2.1873,4.9679-4.2,1.7063-1.341,3.478-2.601,2.6566-1.8891,5.4521-3.5884.9315-.5659,1.8772-1.11,1.8916-1.0878,3.84-2.0859A89.832,89.832,0,0,1,119.56,34.6719c2.5679-.2193,5.1644-.3379,7.789-.3379a89.9956,89.9956,0,0,1,37.771,8.2571,89.9945,89.9945,0,0,1,37.7709-8.2571C205.5158,34.334,208.1123,34.4526,210.68,34.6719Z" style="fill: #5dcdff"/>
    </g>
    <path d="M304.6445,193.1974c.3883-.5766.7682-1.1589,1.1468-1.7421.18-.2765.3624-.551.54-.8291.2659-.4169.5248-.8384.7857-1.2586.2766-.4446.555-.8879.826-1.3363.162-.2684.3187-.54.4787-.81.357-.601.7128-1.2026,1.06-1.81.0737-.129.1443-.26.2175-.3889q.6336-1.1192,1.2468-2.2513l.0072-.0136a122.0178,122.0178,0,0,0,7.2372-16.1312c.0606-.1662.1165-.3345.1763-.5009.2673-.7444.5325-1.49.7856-2.2409.2371-.7014.4619-1.4077.6865-2.1141.0685-.2164.1419-.43.2094-.6474a121.8379,121.8379,0,0,0,5.4357-40.53q-.0088-.2623-.0181-.5242-.0648-1.6556-.1733-3.317c-.063-.9859-.1452-1.9662-.2312-2.9456-.0313-.3459-.0563-.6911-.09-1.0373a122.2114,122.2114,0,0,0-4.0693-21.6754q-.8268-2.91-1.7917-5.7611a121.9738,121.9738,0,0,0-8.36-19.1269q-2.1245-3.9106-4.52-7.6457-.7976-1.2442-1.6245-2.468-1.6531-2.4471-3.42-4.8092a123.3413,123.3413,0,0,0-9.5023-11.239q-2.031-2.13-4.1619-4.1617-1.065-1.0155-2.1543-2.0055-4.3567-3.96-9.0846-7.4969a122.7121,122.7121,0,0,0-17.5488-10.95q-1.3224-.6772-2.663-1.3234a122.1776,122.1776,0,0,0-53.18-12.0959A123.5814,123.5814,0,0,0,183.8743,3.48a133.7372,133.7372,0,0,1,37.9894,26.68q3.9221,3.9222,7.4692,8.11a89.7688,89.7688,0,0,1,14.6857,5.9474c1.0656.5459,2.1158,1.1174,3.1565,1.7039.8613.4853,1.7171.9792,2.5606,1.4918q2.7939,1.6975,5.4522,3.5884c.9245.6575,1.832,1.3369,2.73,2.0278q1.0662.82,2.1087,1.6694,1.098.8976,2.1678,1.8274,1.1194.9752,2.2039,1.989.8125.7559,1.6064,1.5311.7754.7572,1.5322,1.5327.7391.757,1.46,1.5311c.7478.8025,1.4856,1.6141,2.2041,2.4435q.71.8195,1.4,1.6562,1.3806,1.6731,2.6819,3.4127,1.9509,2.6088,3.7151,5.3595a89.9172,89.9172,0,0,1,14.2322,48.6924,90.8782,90.8782,0,0,1-1.3416,15.53c-.06.3476-.1137.6972-.1782,1.0436-.1162.6271-.249,1.2482-.3782,1.8707-.1142.5476-.2263,1.0958-.3506,1.64-.1159.51-.2412,1.0171-.3656,1.5241-.1663.6743-.337,1.3472-.5184,2.0163q-.1637.6054-.3359,1.2073-.3428,1.1976-.7176,2.383c-.106.3359-.2094.6729-.3193,1.0071q-.2033.6171-.4143,1.2311-.2956.858-.6089,1.7077c-.0556.1515-.1081.3045-.1648.4558-.2485.6645-.5119,1.3224-.7749,1.98-.1108.2762-.2162.5553-.33.83-.206.5014-.4248.9967-.64,1.4937-.1882.4339-.3746.8686-.5694,1.2989q-.6986,1.54-1.4505,3.0516c-.1228.2465-.2484.4914-.3732.7367-.1862.3646-.3793.7249-.57,1.0867-.2691.51-.5364,1.02-.8146,1.5242q-.7367,1.3347-1.5172,2.6433c-.209.35-.428.6929-.6414,1.04q-.669,1.0884-1.3689,2.1567c-.345.5264-.6914,1.0517-1.0471,1.57q-.3113.4524-.6284.9006c-.4834.6867-.97,1.371-1.4717,2.0434l-.0832.1126q-1.2785,1.7078-2.6341,3.352l-.0581.07q-.673.8141-1.3638,1.6129-1.42,1.6391-2.9161,3.2084t-3.0651,3.0651a90.8137,90.8137,0,0,1-8.2773,6.9983q-1.7391,1.3006-3.542,2.5188t-3.6653,2.35q-1.8625,1.1318-3.7832,2.1753a89.7948,89.7948,0,0,1-16.62,6.9677l-.0171.0192c-1.3251.4036-2.66.7863-4.0139,1.1312a91.4408,91.4408,0,0,1-9.0664,1.8261,89.92,89.92,0,0,1-48.263-6.0138q-2.0094-.8442-3.9724-1.7826-.981-.4692-1.95-.961-1.9376-.984-3.8241-2.0585-2.8183-1.6053-5.5135-3.4073l.0289-.0091c-.1194-.08-.2411-.1567-.36-.237q-2.2523-1.5216-4.4061-3.1732l-.0048-.0037a90.3454,90.3454,0,0,1-7.4449-137.0932c.0484-.0462.0976-.0916.1462-.1378q1.4284-1.3575,2.916-2.6518,1.069-.9309,2.1678-1.8274,1.32-1.0794,2.6818-2.1088.4366-.33.8771-.6547.9952-.7343,2.0116-1.4407.7035-.49,1.4154-.9686a79.1648,79.1648,0,0,0-45.5379-1.5924,122.1285,122.1285,0,0,0-26.9668,75.905l-.0231-.0333c-.0043.7094.02,1.4234.0277,2.1349.0055.537.0087,1.0745.021,1.61q.0241.9924.0648,1.9872c.0436,1.1194.0988,2.2358.1722,3.3472.024.3542.054.7091.0811,1.0637a122.3123,122.3123,0,0,0,3.4592,21.15l.02.0782q.3549,1.3863.74,2.76c.0268.0956.0525.1916.0795.2871q.3589,1.2643.7439,2.5176c.0426.1394.0826.28.1256.4193q.3859,1.2392.7971,2.4671a122.67,122.67,0,0,0,217.8994,29.86C304.5111,193.3907,304.5789,193.2948,304.6445,193.1974Z" style="fill: #5dcdff"/>
  </g>
</svg>
