<svg xmlns="http://www.w3.org/2000/svg" width="3.5in" height="3.5in" viewBox="0 0 252 251.9982">
  <path d="M142.15,4.3342l-.0884-.0115-.0168-.0021-.0853-.011-.0165-.0021-.0836-.0107-.006-.0008-.0862-.0109-.019-.0025-.0857-.0108-.013-.0016-.0853-.0107-.006-.0008-.0867-.0108-.0187-.0023-.084-.01-.017-.0021-.0806-.01-.009-.0011-.0878-.0108-.0158-.0019-.0872-.0106-.0114-.0014-.0832-.01-.01-.0012-.0882-.0106-.0145-.0017-.0886-.0106-.0086-.001-.0841-.01L140.67,4.151l-.0857-.01-.0183-.0022-.0869-.01-.0063-.0007-.0853-.01-.0125-.0015-.0879-.01-.0134-.0015-.09-.01-.002,0-.0891-.01-.0122-.0014-.0882-.01-.013-.0015-.18-.02-.0149-.0016-.0865-.01-.0149-.0016-.0877-.01-.002,0-.0888-.01-.0156-.0017-.0858-.0092-.0153-.0016-.1781-.019-.0155-.0017-.0862-.0091-.0145-.0015-.08-.0084-.0118-.0012-.086-.0089-.0167-.0018-.0869-.0089-.0109-.0011-.0857-.0088-.0069-.0007-.0881-.0089-.0155-.0016-.0886-.0089-.0067-.0007-.0882-.0088-.0076-.0008-.09-.0088-.0129-.0013-.089-.0087-.008-.0008-.0883-.0086L138.12,3.877l-.09-.0087-.013-.0013-.0906-.0086-.0017,0-.0886-.0084-.013-.0013-.0869-.0082-.0144-.0013-.09-.0084h0l-.09-.0083-.0128-.0012-.0865-.008-.0157-.0014-.1783-.0162-.0144-.0013-.0877-.0078-.0118-.0011-.1824-.0161-.0106-.0009-.0892-.0078-.0118-.001-.0875-.0075-.0039,0-.089-.0076-.0145-.0012-.0894-.0076-.0058,0-.1864-.0155-.0105-.0009-.09-.0074-.01-.0008-.0851-.0069-.0082-.0007-.0883-.0071-.0144-.0012-.089-.0071-.0056,0-.0867-.0069-.01-.0008-.0874-.0068-.015-.0012-.0881-.0068-.007-.0006-.0868-.0066-.0091-.0007-.0891-.0068-.0126-.0009-.183-.0137-.0086-.0007-.09-.0066-.0115-.0008-.1836-.0133-.009-.0006-.0906-.0065-.0088-.0006-.1845-.0129-.01-.0007L134.6,3.5859l-.0041,0-.1882-.0127L134.4,3.5723l-.0912-.006L134.3,3.5658l-.1857-.0121-.008-.0006-.0931-.0059-.003,0-.0949-.006-.0009,0-.0922-.0057-.01-.0006-.0915-.0057-.0035,0-.0951-.0058h0l-.092-.0055-.0114-.0007-.0908-.0054-.0031,0-.0941-.0055-.0019,0L133.2355,3.5l-.0075,0-.1872-.0106-.0058,0-.0917-.005-.0085-.0005-.1859-.01-.007,0-.0935-.005-.0036,0-.1905-.01-.0037,0-.0932-.0047-.0069,0-.1889-.0093-.0032,0-.0959-.0047h0L131.87,3.43l-.0037,0c-.0973-.0045-.1913-.0087-.2886-.013l-.0035,0c-.0973-.0043-.1924-.0083-.29-.0124h-.0012c-.2919-.0121-.5821-.0231-.8737-.0331l-.0023,0c-.2592-.0089-.5155-.0169-.7744-.0241l-.0027,0a122.3449,122.3449,0,0,0-17.4057.7521l2.8587,24.8361a98.1584,98.1584,0,0,1,23.8461.1912L142.15,4.3342ZM73.9387,15.0547l-.0333.0159-.0363.0171-.0354.0168-.0567.027-.0369.0175-.0348.0166-.054.0257-.0373.0178-.0379.0181-.0363.0174-.0566.0271-.0309.0147-.0411.02-.0277.0133-.0659.0317-.0282.0135-.08.0383-.0139.0067-.0426.0206-.0256.0123-.0664.0321-.0285.0138-.0407.02-.0269.013-.0687.0333-.0261.0126-.0426.0207-.014.0068-.0822.04-.0214.01-.1386.0676-.025.0122-.0728.0357-.02.01-.0457.0224-.0171.0084-.0762.0374-.0235.0116-.0425.0209-.0218.0107-.0756.0374-.0192.0094L71.9886,16l-.0151.0074-.0936.0465-.0034.0016-.0485.0242-.0129.0063-.0875.0436-.0123.0062-.15.0748-.007.0035-.1506.0755-.01.0047-.2541.128-.0032.0016-.15.0758-.0116.0059-.15.0763-.0038.002c-.0845.0429-.1683.0857-.2527.1288l-.01.0051-.1513.0776-.004.002-.154.0792-.0017.0009A123.3218,123.3218,0,0,0,48.65,31.0566L64.4815,50.4048A98.3349,98.3349,0,0,1,84.64,37.6486L73.9387,15.0547ZM22.3145,60.93a121.6884,121.6884,0,0,0-8.2147,15.5l-.0022.005-.0743.1688-.0011.0025-.0367.0837-.0023.0052-.0718.1642-.0048.011-.0352.081,0,.0006-.0358.0822-.0028.0064-.0347.08-.0049.0112-.0683.1581-.007.0161-.0326.0756-.0052.0121-.0287.0668-.0077.0179-.0313.0727-.0081.019-.0289.0676-.0056.013-.03.07-.0091.0215-.03.0709-.0088.0206-.0252.0594-.0087.02-.0292.0687-.0113.0267-.0256.06-.0113.0267-.023.0545-.0128.03-.0277.0656-.0111.0263-.0213.0507-.0118.0281-.0264.0626-.0144.0343-.0182.0435-.0225.0539-.0145.0346-.0163.039-.0241.0577-.0164.0394-.0142.034-.027.0649-.0122.0295-.0185.0445-.01.0253-.03.0718-.0113.0271-.0225.0546-.0183.0441-.0175.0425-.0114.0279-.0312.0757-.0089.0216-.0193.0471-.0052.0126-.0369.09-.0061.0148-.0628.1539-.0038.0093-.0416.1021,0,.0009Q11.0471,83.803,9.67,88.051l23.7842,7.701a96.9053,96.9053,0,0,1,10.05-21.5554L22.3145,60.93Zm6.36,66.2335-24.9986.2645,0,.0364.0005.04,0,.0417.0008.0645.0005.0409.0006.0428.0007.0607.0006.0432.0006.041.0009.066.0006.0386.0006.0426.0007.0439.0009.06.0007.04.0008.05.0009.0517.0008.0472.0007.0375.0012.07.0007.033.0009.0511.0009.0441.0011.0583.0007.0344.0013.0633.0009.0412.001.049.0008.0348.0015.0691.0008.0367.0012.0519.001.0442.0013.0548.0008.034.0018.0726.0007.0285.0014.0574.0008.0279.0019.0751.0008.0284.0019.0732.0007.0245.0017.0637.0007.0245.0022.076.0008.028.0019.0649.0006.0216.0023.0761.0007.0244.0024.0779.0007.0231.002.0637.0008.0228.0025.0794.0007.0219.0026.0788.0005.0135.0026.0774.0006.0177.0028.0814.0008.0207.0026.0743,0,.011.003.0831.0007.02.0031.0833,0,.01.003.0789.0006.016.0032.0837.0006.0157.0069.1742.0006.0148.0036.0864,0,.0091.0036.0873,0,.0036.0038.089.0006.0127.0077.176.0006.0143.0039.0864,0,.01.0041.0888v.001l.0041.0872.0007.0164.0041.0849,0,.01.004.0834,0,.0082.0043.0886.0005.01.009.1788.0006.0123.0045.0881,0,.0069.0046.0889,0,.003.0047.09.0006.0108.0048.09,0,.0013.0048.089.0005.009.0049.0893,0,.0077.01.1817,0,.0087.0052.0911,0,.0018.0054.092,0,.0034.0053.09.0006.0109.0109.18,0,.0077.0056.0908,0,.0048.0115.1831.0006.01.0119.1854v.001l.0061.0929,0,.0053.0123.1851,0,.0045.0064.0932v.0006l.0128.1865.0006.0079.013.1842,0,.0038.0067.0936,0,.0005.0137.1884,0,.0035c.007.0952.0139.1872.0211.2824l0,.0037.0144.1869,0,.0023c.0074.0952.0147.1883.0223.2834l0,.0021c.0076.0952.0151.1872.0229.2823l0,.0047.0153.1851,0,.0041c.0079.0951.0158.1879.024.2829l0,.0005q.02.2374.0418.4742v0l.0172.1894v0c.0087.0949.0175.189.0264.2838l0,.0011c.0089.0948.0178.1887.027.2834l0,.001.0181.1863,0,.0042.0091.0925,0,.0017.0186.1877,0,.0012c.01.0947.0189.1874.0286.282l0,.0031.0193.1866,0,.0015c.01.0945.0195.186.03.2805l.0005.005.02.1862,0,0,.01.0925,0,.0047.02.1806.001.01.01.09,0,.0009.0105.0936v0l.01.0924,0,.0042.0209.1835.0005.0048.01.0913,0,.003.0211.1819.0011.01.0214.1818,0,.0029.0108.0914.0006.0045.0217.1808.001.0089.0108.0888.0006.0048.0109.0892,0,.0023.0106.0865.0018.0143.0107.0865,0,.0015.0107.0854.0015.0122.0108.086.0011.0094.0111.0878,0,0,.0112.0886.0012.01.0113.0879.0007.0057.011.0861.0008.0058.0112.0866.0016.0129.0227.174.0015.0109.0113.0864.0012.0091.011.083.0009.007.0115.0858.0017.0127.0115.0862.0006.0044.0114.0846.0012.0092.0114.0836.0023.0175.0112.0817,0,.0021.0115.0841.0024.0171.0112.0816.002.0142.01.0741.0019.0138.0112.0808.0027.019.0114.0815.0013.0093.0108.0766.0024.0168.0114.08.0027.0191.0111.0778.0007.0049.0118.0827.0028.019.0117.081.0017.0123.01.0721.0028.02.0114.0781.003.02.0112.0765.0016.0109.011.0746.0035.0233.011.0747.0038.0253.0092.0614.0033.0222.0113.0754.0036.0243.0117.0776.0021.0137.01.0681.0035.0233.0115.0753.0036.0239.01.0642.004.026.01.0669.0046.0294.0109.0712.0045.0288.0082.0526.0045.029.0109.07.005.0314.0093.0595.0058.0369.0086.0542.0051.0326.011.0693.005.0315.0078.0487.0065.0407.0092.0579.0059.0363.0078.0487.0087.054.0068.0419.0059.0364.0107.066.0059.0364.0074.045.0088.0536.0071.0433.0065.04.01.0627.0065.0388.0067.0409.0082.049.0088.0529.0066.04.0066.0393.0108.0648.0056.033.0074.0439.0081.0482.01.0567.005.0294.0127.0748.005.0288.0082.0484.0032.0183.015.0877.0036.0211.018.1042,0,.0011.009.0519.0031.0175.0153.0879.0038.0222.0277.1577.0028.0161.0178.1006.001.0061.01.0543.0018.01.0169.095.0035.02.0285.1592.0024.0131.0182.1006.0013.0077.0291.16.0036.02.0294.16.0012.0064.0194.1054.0012.0064.0307.1654.0018.01c.0172.0924.0347.1854.0521.2777l.001.0052.0318.1677.0009.0047q.0269.141.054.2818l0,.0012Q6.6395,153.2,7.66,157.0852l24.1808-6.3471a96.9821,96.9821,0,0,1-3.1661-23.5749Zm16.1009,52.5225-20.8724,13.76q1.4182,2.1513,2.9251,4.2417l.0013.0018c.0675.0935.1355.1876.2032.281l.0049.0068.0634.0873.0041.0056.1362.187.0009.0013.0651.0891.0066.009.0657.09,0,0,.1356.1848.0079.0107.0592.08.0088.0121.0656.0889,0,.0005.0689.0933.0026.0034.062.0838.0127.017.0555.0748.0113.0153.1317.177.0134.0179.0518.0694.0176.0236.0524.07.0124.0166.0654.0873.009.0119.0562.0749.018.024.0474.063.02.026.0538.0714.0109.0144.0646.0855.0166.022.0481.0635.0218.0289.0446.0587.0214.0283.0587.0772.0056.0074.0628.0824.0241.0317.0411.0538.0254.0333.0421.0551.0229.03.0619.0808.02.0261.0442.0577.0271.0351.0391.051.0258.0334.0439.0571.0217.0281.0606.0785.0283.0367.0356.046.0313.04.0344.0444.03.0392.04.0513.0437.0563.04.0519.0308.04.0339.0435.0325.0416.0325.0416.0324.0416.04.0517.05.0645.032.0407.0345.0441.029.0368.0366.0466.0276.035.0632.08.0308.0391.0369.0467.0269.0341.0379.0479.0258.0325.04.05.0181.0229.0852.1072.0153.0193.0427.0536.0216.0271.0425.0533.0185.0233.1456.1821.0184.0228.0432.054.0205.0256.0429.0534.0183.0227.1468.1822.018.0223.0439.0543.02.0251.0453.056.0034.0042.11.1355.0036.0044.0479.0588.0163.02.0477.0586.012.0147c.0532.0653.106.13.1594.1952l.009.011.0505.0616.0113.0137.0522.0637.0019.0024.1721.2091.0027.0032.0551.0668.0065.0078q.1135.1374.2276.2747l.0056.0067c.098.1179.1922.2308.2906.3484l.0035.004c.0984.1176.1952.2327.294.35l0,0q.1187.1405.2374.28l0,0a123.3356,123.3356,0,0,0,10.4231,10.8578l16.9436-18.3826a98.4179,98.4179,0,0,1-15.4513-18.181Zm41.922,35.5783L76.5637,238.1179q2.3393,1.0373,4.7338,1.9808l.0056.0022.1581.0621.0028.0011.0972.0381.0159.0062.09.0351.012.0046.0486.019.0153.006.0851.033.0184.0072.15.058.0155.006.0837.0323.0209.0081.1455.056.0247.01.0732.028.0258.01.0446.0171.0309.0118.0649.0248.0336.0128.0589.0224.0386.0147.04.0152.0381.0145.06.0226.0323.0122.0425.0161.0571.0215.0359.0136.0454.0171.0495.0186.0417.0157.0362.0136.0616.0231.0341.0127.0458.0172.0429.016.05.0188.0318.0118.0636.0237.0344.0128.0449.0167.0381.0141.0574.0213.0315.0116.0652.0242.0287.0106.0494.0182.0283.01.0667.0245.0295.0108.0632.0233.0283.01.0555.02.0259.0094.0676.0247.03.0109.06.0219.026.0094.0583.0212.029.01.0674.0245.0272.01.0546.02.0341.0123.0589.0212.027.01.07.0252.0241.0086.057.02.0229.0083.0681.0244.0293.01.069.0247.0227.0081.0578.0206.0238.0085.0716.0254.0237.0085.0657.0233.028.01.0571.02.0245.0086.0706.0249.0259.0092.0629.0221.0222.0078.0652.0229.0253.0089.0708.0248.0234.0082.0627.0219.0162.0056.0737.0257.0235.0082.0727.0252.02.007.0644.0223.018.0063.073.0252.0242.0084.0732.0252.0187.0065.0592.02.0254.0088.0717.0246.0226.0077.07.0241.02.0067.0661.0225.02.007.075.0256.02.0066.0735.025.0061.0021.0789.0267.018.0061.0777.0263.0152.0051.07.0236.0147.0049.0773.026.0182.0061.0778.0261.0131.0044.0736.0247.0113.0037.0782.0261.0193.0065.0781.026.0093.003.0739.0246.016.0053.0775.0256.0178.0059.08.0264.0031.001.0773.0255.0183.006.0775.0254.0162.0053.0749.0246.008.0026.0784.0256.02.0064.0787.0257.01.0033.0773.0252.0094.003.0806.0261.0156.0051.08.0259.0116.0037.0745.024.0124.004.0816.0262.0126.0041.1681.0538.0118.0038.0817.026.013.0042.1676.0532.0131.0042.08.0252.0163.0052.0758.0239.0066.0021.0813.0256.0161.005.0812.0255.0087.0027.079.0247.01.0031.0818.0255.0142.0044.0835.026.0026.0008.0838.026.009.0028.0827.0256.0133.0041.1681.0518.0131.004.083.0255.01.0029.1728.0528.0086.0026.0851.0259.0091.0028.0834.0253.0035.001.0828.0251.0163.0049.0818.0247.0072.0022.0805.0242.0092.0028.083.0249.0135.004.083.0248.0073.0022.0783.0234.0131.0039.0816.0242.0138.0041.1668.0494.0164.0049.08.0236.0137.004.0794.0234.0059.0017.0821.0241.0163.0048.0806.0235.0134.0039.0768.0224.0088.0026.08.0233.02.0057.079.0229.0124.0036.0724.0209.0168.0048.08.0231.0154.0044.083.0239.0045.0012.0809.0232.0131.0038.0805.0229.0182.0052.0787.0224.0038.0011.0816.0231.0184.0052.0786.0223.0175.0049.0712.02.0134.0038.08.0224.0183.0051.08.0224.0136.0038.0761.0213.0109.0031.08.0223.02.0055.0809.0224.0067.0019.0777.0216.0157.0043.08.0221.017.0047.08.022.0111.003.0745.02.0179.0049.0791.0216.0186.0051.0758.0207.0074.002.0809.022.0186.005.08.0217.0157.0043.0719.0194.0151.0041.078.021.022.0059.0761.02.021.0056.0662.0178.0177.0047.077.02.0236.0063.0765.02.0168.0044.0666.0177.0226.006.0758.02.0223.0059.0752.02.0107.0028.0746.02.0232.0061.0745.0195.0247.0064.0653.0171.017.0044.0754.02.0261.0068.0751.0195.02.0053.0648.0167.021.0054.0751.0194.025.0064.0758.0195.0194.0049.0654.0168.0217.0055.0756.0193.025.0064.0745.0189.0168.0043.0681.0172.0227.0058.0764.0192.0227.0058.0678.017.0218.0055.0713.0179.0238.006.0754.0188.0231.0058.0645.016.0195.0049.0747.0185.0274.0068.0739.0183.0223.0055.0643.0159.0211.0052.0758.0187.0255.0062.0754.0185.0206.005.0635.0155.023.0056.0753.0183.0258.0063.0662.016.03.0073.0607.0146.0286.0069.0741.0179.0242.0058.0645.0155.0228.0054.0722.0173.025.006.0743.0177.0262.0062.0617.0147.0219.0052.0741.0175.0287.0068.0728.0171.0266.0063.0544.0128.03.0071.0716.0167.03.007.065.0151.0322.0075.0572.0133.03.0071.07.0161.0319.0074.0628.0145.0257.0059.065.015.03.0069.0711.0163.03.0068.0542.0124.0389.0089.061.0139.0312.0071.0717.0162.0281.0064.0549.0124.0286.0064.0709.016.0317.0071.0715.016.0265.0059.0579.0129.0275.0062.0737.0164.0282.0063.0629.0139.0358.0079.0567.0125.03.0066.0717.0158.0306.0067.0593.013.0321.007.0632.0138.0312.0069.0714.0155.0291.0063.0571.0124.0262.0056.0719.0156.0312.0067.0711.0153.0289.0062.057.0122.0275.0059.0724.0154.03.0065.0742.0157.0219.0047.0593.0125.03.0063.0715.0151.031.0065.06.0126.0378.008.0569.0119.0322.0067.07.0145.034.0071.0535.0111.0357.0074.0633.0131.03.0063.0727.015.0292.006.0551.0113.0341.007.0667.0136.0325.0066.0715.0146.0282.0057.0549.0111.03.0061.0708.0143.0332.0067.0617.0124.0363.0073.0569.0114.03.0061.0724.0144.03.006.0623.0123.03.006.0641.0127.03.0059.0727.0143.029.0057.06.0117.0291.0057.0682.0134.0313.0061.0738.0143.0252.0049.061.0118.0248.0048.0755.0146.0269.0052.0764.0146.0231.0044.0632.0121.0247.0047.0767.0147.026.0049.07.0134.0266.005.0628.0118.0287.0054.0739.0139.0286.0054.0638.0119.0266.005.07.0131.027.005.0748.0139.0283.0052.06.0111.0237.0044.0753.0138.0288.0053.0756.0138.0237.0043.0626.0114.0261.0048.0751.0136.0275.005.077.0139.02.0037.0646.0116.0257.0046.0763.0136.0257.0046.078.0139.01.0019.0778.0137.0217.0039.0812.0143.0181.0032.0768.0135.0111.0019.084.0147.0184.0033.0168.0029,4.2915-24.6289a97.6059,97.6059,0,0,1-22.7936-6.912Zm77.4276.7943a97.0765,97.0765,0,0,1-22.8944,6.4722l3.7942,24.7105a121.7862,121.7862,0,0,0,12.6653-2.6405l.0019-.0005c.3012-.08.6-.16.9-.2418l.0028-.0008c.15-.041.2975-.0815.4475-.123l.0028-.0008c.15-.0415.2966-.0824.4463-.1245l.0038-.0011c.2995-.0842.5964-.1688.895-.2553l.0009,0,.177-.0514.003-.0008c.2388-.07.4758-.1393.714-.21l.0007,0a122.17,122.17,0,0,0,12.5351-4.4884l-9.6959-23.0432Zm42.7035-34.7123a97.9831,97.9831,0,0,1-15.8244,17.8273l16.5412,18.7454.0223-.02.0052-.0046.1333-.1179.0033-.003.0669-.0592.0021-.0019.1341-.1191.0048-.0043.1323-.1178.0043-.0038c.0686-.0613.1352-.1208.2037-.1823l.0007,0,.1352-.1214.0026-.0024.1346-.1212.0015-.0013a122.9888,122.9888,0,0,0,15.192-16.4375l.0006-.0008c.0563-.0734.1123-.1465.1685-.22l0,0,.11-.144.0051-.0066.1076-.1416.0033-.0043.1093-.1441.0016-.0022.0546-.0721.0019-.0026.1086-.1438.0041-.0054.1064-.1415.0046-.0061.0533-.071.0012-.0017.0531-.0709.0024-.0031.0537-.0717.0027-.0037.1061-.1422.0061-.0081.1024-.1376.0089-.0121.05-.068.0032-.0043.0493-.0666.0053-.007.05-.0678.0079-.0107.0474-.0641.0041-.0056.05-.0676.0082-.0111.1-.1363.0091-.0124.0476-.0649.01-.0141.0425-.0581.008-.0109.0473-.0646.0116-.0158.0474-.0649.0008-.0011.047-.0645.014-.0192.0463-.0636.0065-.0089.0424-.0582.0123-.0171.0451-.062.0132-.0182.0369-.0509.012-.0165.0447-.0618.0142-.02.04-.0556.0122-.0168.0409-.0567.0141-.02.0441-.0612.0126-.0175.0376-.0523.0114-.0158.0451-.0628.0138-.0193.0366-.0511.012-.0167.0432-.06.0163-.0229.0416-.0582.0091-.0128.04-.0562.0141-.02.0442-.0622.0124-.0173.0349-.0491.0158-.0223.0421-.0593.0157-.0221.0333-.047.0144-.02.0415-.0585.0169-.0239.035-.05.0226-.0321.03-.0424.0186-.0263.0409-.0581.0154-.0219.0328-.0466.0146-.0207.0416-.0594.0169-.024.0335-.0479.0172-.0245.0367-.0524.0185-.0266.0373-.0533.0191-.0275.0281-.04.0206-.03.0388-.0557.0178-.0256.0293-.0421.0175-.0252.04-.057.0187-.0271.0286-.0411.0269-.0389.0286-.0414.02-.029.0345-.05.0221-.032.0166-.024L206.8289,181.346Zm42.1266-51.4183-24.9861-.835c-.105,3.1413-.365,6.3258-.7729,9.465A99.0376,99.0376,0,0,1,220.3,152.6991l24.0569,6.8019q1.518-5.3691,2.5621-10.9534l0-.0011q.0711-.3821.14-.7644l.0013-.0075.0355-.1985.0019-.0107.011-.0618.0027-.0153.0333-.1884.0035-.02.01-.06.0012-.0068.0219-.1255.002-.0113.01-.0581.0043-.0247.03-.1768.005-.029.0089-.0519.0049-.0289.0166-.097.0043-.0254.0089-.0523.0049-.0291.0088-.0524.0052-.0307.0143-.0854.0064-.0381.0078-.0468.0065-.0386.0073-.044.0121-.0726.0074-.0447.0068-.0416.0072-.0436.0074-.0453.01-.0631.0082-.05.0067-.0414.0073-.0447.0068-.0422.01-.06.009-.0558.0068-.0425.0069-.0427.0077-.0486.0058-.036.0122-.0764.0062-.0389.0077-.0487.0059-.0372.0094-.0595.008-.0514.0083-.0523.0063-.04.0072-.0462.0061-.0393.012-.0772.0053-.0341.0082-.0531.0056-.0364.0094-.0614.0036-.0233.0124-.0811.0051-.0337.0085-.0554.005-.0329.0123-.0816.0034-.0223.01-.0642.0049-.0324.009-.06.0041-.0281.0125-.0838.0034-.023.01-.0653.0041-.0277.0118-.08.0013-.0085.0123-.0842.0042-.0286.009-.0623.0039-.0263.0122-.0845.0031-.0217.01-.067.0041-.029.01-.0666.003-.0213.012-.0842.0038-.0265.0091-.0642.0038-.0273.0122-.0866.0007-.0046.0115-.0826.0036-.0254.01-.07.0028-.02.012-.0867.003-.0214.0092-.0674.0037-.027.01-.0737.0021-.0153.0116-.0854.0036-.0266.0089-.0656.0032-.024.0117-.0872.002-.015.01-.0727.0038-.0285.0092-.0689.0025-.0189.0114-.0867.0031-.0234.0088-.0668.0034-.0264.0114-.0874h0l.0124-.0956.0044-.0346.0079-.0614.005-.0388.0073-.0571.0052-.0408.007-.0551.0053-.0415.0069-.055.0051-.04.007-.0555.0052-.0422.0067-.0534.0052-.0423.0067-.0538.0053-.0433.0065-.0527.0052-.0422.0067-.0549.005-.0408.0069-.0565.0047-.0388.0069-.0572.0047-.04.007-.0578.0044-.0372.0072-.0607.0043-.0356.0076-.0643.0037-.0311.0079-.0678.0034-.0289.01-.0849.0012-.0105.0113-.0976,0,0,.011-.0961.0024-.0207.0085-.0746.0034-.03.0076-.0671.0033-.0293.0076-.0668.0034-.031.0074-.0656.0036-.0325.0069-.062.004-.0367.0066-.06.004-.0366.0065-.059.004-.0371.0065-.06.0039-.0361.0065-.06.0039-.0366.0066-.061.0036-.0344.0068-.0639.0033-.0314.0071-.0671.0031-.0291.0069-.0666.0032-.03.0076-.0733.0023-.0217.0093-.0908,0-.0047c.01-.0981.02-.1956.03-.2937l0-.0015.01-.0944.0013-.0137.0081-.0818.0022-.0217.0072-.0735.0026-.027.0069-.07.0023-.0242.007-.0725.0025-.0254.0068-.0711.0024-.0251.0068-.0716.0024-.0254.0069-.0729.002-.022.007-.0751.0021-.0222.007-.076.0019-.02.007-.0769.0019-.02.0076-.0833.001-.0111.0083-.092,0-.0043c.0235-.2612.0458-.5193.0676-.78l.0006-.0074.0076-.09.0005-.0064.0073-.0894.0009-.01.0071-.0873.0008-.01.0071-.0877.0007-.01.0071-.0884.0007-.0086.0071-.09.0005-.0071.0074-.0942,0-.0015q.2139-2.745.3046-5.4723ZM231.6649,63.0813,210.21,75.9135a97.7391,97.7391,0,0,1,9.6489,21.7837l23.9244-7.2539q-.1455-.48-.2947-.9578l-.0006-.002c-.0288-.0921-.0579-.1849-.0868-.2768l-.0017-.0053-.0515-.1631-.0024-.0076-.0517-.1631-.0015-.0047-.0334-.105-.0018-.0056-.0174-.0544,0-.0014-.0326-.102-.0049-.0151-.05-.1562-.0047-.0147-.0319-.0987-.0019-.0059-.017-.0527-.0031-.0094-.03-.0937-.0055-.0171-.0161-.0494-.0025-.0075-.0307-.0944L243,87.9583l-.0332-.1014v0l-.016-.0487-.0072-.0221-.026-.079-.0075-.0227-.0156-.0476-.0062-.0187-.0275-.0833-.0073-.0219-.0491-.148-.0086-.026-.0222-.0666-.0114-.0343-.0144-.043-.01-.03-.023-.0689-.0105-.0311-.0143-.0427-.0114-.0339-.021-.0626-.0119-.0354-.0125-.037-.02-.0606-.0134-.04-.0122-.0362-.0176-.0517-.0155-.0458-.013-.0381-.0142-.0418-.0173-.0509-.0145-.0426-.0118-.0346-.0216-.063-.0119-.0347-.0136-.04-.0123-.0357-.0214-.0624-.012-.0347-.0139-.0405L242.36,86.05l-.016-.0463-.0108-.0313-.0222-.0641-.01-.0277-.018-.0519-.01-.029-.0231-.0664-.01-.0292-.0171-.049-.0094-.027-.0235-.0673-.01-.0278-.02-.0575-.0107-.03-.02-.0569-.01-.0285-.0243-.069-.0073-.0206-.02-.0576-.008-.0227-.0258-.0729-.0064-.0182-.0228-.0643-.0059-.0166-.0256-.0721-.0083-.0231-.026-.0731-.0037-.01-.0238-.0669-.0078-.0216-.0258-.072-.0068-.0191-.023-.0642-.0056-.0154-.0268-.0747-.0068-.0189-.0257-.0711-.0023-.0063-.0273-.0757-.0072-.02-.0277-.0764-.0019-.0052-.0274-.0755-.0048-.0132-.0283-.0779-.0044-.0121-.0261-.0713-.0039-.0109-.0286-.0781-.0048-.0132-.0594-.1617-.0037-.01-.03-.0809-.0019-.0053-.0293-.0791-.0023-.0063-.03-.0811-.0036-.01-.06-.1629-.004-.0107-.0612-.164-.0026-.007-.0311-.0831-.0012-.0032-.03-.0806-.0022-.006-.0311-.0826-.0021-.0056-.0626-.1659-.0031-.0083-.0313-.0825,0-.0012-.0313-.0823-.0021-.0056-.0321-.0844,0-.0005-.0646-.1693-.003-.0079-.0633-.1651-.0028-.0071-.0635-.165-.0028-.0073-.0317-.0819-.002-.0051-.0658-.17,0,0c-.056-.144-.1118-.2869-.1683-.4307l-.0008-.002-.0675-.1712v0q-2.1441-5.4307-4.7855-10.6154l-.0008-.0017-.083-.1626-.0008-.0015c-.042-.0822-.0835-.1633-.1257-.2453l-.0005-.0011-.0825-.16-.003-.006-.0832-.161,0,0-.0423-.0816,0-.0005-.0823-.1585-.0053-.01-.08-.1526-.0053-.01-.04-.0754-.0033-.0064-.0357-.0682-.007-.0133-.0373-.0711-.0079-.015-.0355-.0675-.0037-.007-.0382-.0725-.0077-.0146-.0386-.0731-.0029-.0055-.0357-.0677-.0085-.0159-.0367-.0694-.009-.0169-.0308-.0581-.01-.0179-.0345-.0648-.0135-.0254-.03-.0569-.0093-.0174-.0325-.061-.0128-.0239-.0346-.0648-.0108-.02-.0275-.0515-.0132-.0245-.0338-.0632-.013-.0241-.0277-.0516-.01-.0191-.0342-.0635-.015-.0279-.0264-.049-.0195-.036-.0249-.0461-.0155-.0288-.0325-.06-.0159-.0294-.0217-.04-.0159-.0294-.0316-.058-.0182-.0336-.02-.0374-.0264-.0484-.021-.0385-.02-.036-.0183-.0335-.0325-.0593-.0143-.0262-.0218-.04-.018-.0328-.0325-.0594-.014-.0254-.0377-.0685-.0127-.0233-.0236-.0428-.0093-.0169-.044-.08-.0083-.0151-.0244-.044-.0092-.0166-.0436-.0789-.0093-.0167-.0787-.1419-.0057-.01-.0805-.1445-.0046-.0083-.0526-.0943-.0012-.0021q-.8826-1.5792-1.81-3.13ZM181.02,16.133,169.8815,38.5145a97.2785,97.2785,0,0,1,19.8471,13.14l16.2445-19.0031a122.4909,122.4909,0,0,0-12.1784-9.1642l-.0006,0-.1538-.1012-.0023-.0015c-.0777-.0511-.1525-.1-.23-.151l-.0048-.003-.15-.0979-.006-.004-.1493-.0971-.0058-.0037-.0727-.0473-.0086-.0055-.07-.0455-.0033-.0021-.0729-.0471-.01-.0062-.1434-.0925-.0133-.0086-.07-.0447-.01-.0062-.066-.0424-.0086-.0055-.0712-.0457-.0107-.0069-.07-.045-.0021-.0013-.0709-.0453-.0131-.0085-.0689-.0439-.0131-.0083-.0586-.0373-.0161-.01-.0658-.0418-.0187-.0119-.0581-.0369-.0115-.0073-.0658-.0417-.02-.0128-.0656-.0415-.0128-.0081-.0565-.0357-.02-.0129-.0654-.0413-.0162-.01-.0549-.0345-.0183-.0115-.0637-.04-.0217-.0137-.0531-.0333-.03-.019-.048-.03-.0255-.016-.0614-.0384-.0222-.0138-.0476-.03-.0231-.0144-.0607-.0378-.0262-.0163-.0483-.03-.0294-.0183-.0506-.0315-.0281-.0174-.06-.0372-.0235-.0146-.042-.026-.0311-.0192-.0552-.0341-.0321-.02-.0372-.0229-.0431-.0266-.0431-.0265-.0323-.02-.04-.0247-.047-.0289-.0347-.0212-.0332-.02-.055-.0337-.0338-.0207-.033-.02-.0513-.0313-.0358-.0219-.0373-.0227-.0326-.02-.0514-.0313-.0346-.021-.0357-.0218-.043-.026-.0451-.0274-.0315-.0191-.0524-.0317-.0358-.0217-.0388-.0235-.0263-.0159-.065-.0392-.0236-.0142-.0424-.0256-.0146-.0088-.0767-.0461-.0213-.0128-.1322-.0793L189.33,20.68l-.0662-.04-.0232-.0139-.043-.0256-.0171-.01-.0743-.0443-.0209-.0124-.1369-.0815-.0153-.009-.0884-.0525-.0053-.0031-.0458-.0272-.0135-.0079-.0833-.0493-.012-.0071-.1431-.0844-.01-.006-.1446-.085-.0066-.0039c-.0819-.0481-.1646-.0965-.2467-.1443l-.0051-.003-.1479-.0862-.0056-.0032-.1489-.0865-.002-.0011-.0951-.0551-.0081-.0047-.1451-.0837-.01-.006-.146-.084-.0048-.0028-.097-.0556-.0025-.0015-.148-.0846-.0082-.0047-.1489-.0849-.0022-.0013-.1512-.0859-.0046-.0026-.0938-.0532-.0086-.0048-.1479-.0836-.0056-.0032-.1493-.0841-.0051-.0028-.0987-.0555,0,0-.1519-.0851-.0043-.0024-.149-.0831-.01-.0054-.0953-.0531-.0015-.0008-.1533-.0851-.0016-.0008-.1527-.0845-.0036-.002c-.0849-.0469-.1693-.0933-.2543-.14l-.0025-.0014-.1484-.0813-.013-.0071-.1472-.08-.0031-.0017-.0985-.0536-.0041-.0023-.1463-.0794-.0159-.0087-.1449-.0784-.0087-.0047-.09-.0485-.0105-.0056-.0489-.0263-.0027-.0015-.0922-.05-.0167-.009-.1428-.0765-.0156-.0084-.0865-.0462-.01-.0052-.0473-.0252-.014-.0074-.0809-.0432-.02-.0105-.14-.0746-.0189-.01-.0866-.0459-.0081-.0043-.0458-.0242-.021-.0111-.07-.0368-.0286-.0151-.0405-.0213-.0257-.0135-.069-.0363-.0233-.0122-.0808-.0424-.0137-.0072-.0424-.0222-.0267-.014-.0655-.0342-.0288-.0151-.0412-.0215-.0226-.0118-.0717-.0373-.0258-.0134-.04-.0206-.0549-.0286-.0374-.0194-.0361-.0187-.0449-.0233-.0473-.0244-.0325-.0168-.0493-.0255-.0384-.02-.0435-.0224-.0309-.016-.0607-.0312-.03-.0156-.0435-.0223L182.34,16.8l-.0633-.0325-.0264-.0135-.0564-.0288-.0252-.013-.0578-.0294-.0228-.0117-.0674-.0344-.0206-.01-.0572-.0291-.0183-.0093-.07-.0356-.0194-.01-.0636-.0323-.0108-.0054-.07-.0357-.0206-.01-.071-.0359-.012-.0061-.0657-.0331-.0147-.0074-.0751-.0377-.01-.0049-.0767-.0385-.0014-.0007-.08-.04-.0081-.004-.1628-.0813-.0021-.0011-.0706-.0351ZM142.15,4.3342l-3.2208,24.7916.6427.0856,3.381-24.77q-.4011-.0546-.8029-.1069Z" style="fill: #06a900"/>
</svg>
