<svg xmlns="http://www.w3.org/2000/svg" width="3.5in" height="3.5in" viewBox="0 0 252 251.9982">
  <path d="M151.7334,5.9335l-.1034-.0227-.0339-.0074-.07-.0151-.041-.009-.0627-.0136-.0424-.0092-.061-.0132-.0453-.01-.0594-.0128-.0427-.0092-.0641-.0137-.04-.0086-.073-.0156-.0292-.0063-.0956-.02-.02-.0043-.0919-.0194-.0365-.0077-.0669-.0141-.0413-.0087-.0626-.0132-.0442-.0092-.0586-.0123-.0455-.01-.06-.0123-.0444-.0093-.0615-.0127-.0413-.0085-.0681-.0141-.036-.0074-.1-.0205-.0066-.0013-.1-.02-.0345-.007-.0692-.0141-.0407-.0083L149.6787,5.5l-.0432-.0088-.0605-.0122-.0443-.0089L149.47,5.458l-.042-.0084-.0636-.0127-.0411-.0082-.0663-.0132-.037-.0074-.0874-.0172-.0306-.0061-.0883-.0174-.0342-.0067-.069-.0135-.0409-.008-.0628-.0123-.043-.0083-.0608-.0118-.0434-.0084-.0614-.0119-.0431-.0083-.0607-.0117-.0434-.0083-.0657-.0126-.0372-.0071-.092-.0176-.0226-.0042-.0913-.0174-.0359-.0067-.0672-.0127-.0428-.0081-.0608-.0114-.0435-.0081-.0608-.0114-.0438-.0081-.0608-.0113-.0428-.008-.0622-.0115-.0419-.0077-.0681-.0126-.0348-.0064-.0932-.017-.0212-.0039-.0921-.0168-.0347-.0063-.0684-.0124-.0405-.0073L147.0625,5l-.0422-.0076-.06-.0108-.0453-.0081-.059-.0106-.0448-.0079-.06-.0106-.0439-.0078-.0646-.0114-.0388-.0069-.08-.014-.0459-.008-.0792-.0139-.037-.0064-.067-.0117-.0414-.0072-.0619-.0107-.0435-.0075-.06-.01-.0451-.0077-.06-.01-.0418-.0071-.0641-.0109-.04-.0069-.0674-.0114-.0359-.0061-.0943-.0159-.0178-.003-.0947-.0158-.0327-.0055-.0692-.0115-.0425-.0071-.0617-.01-.0437-.0072-.0586-.01-.0463-.0077-.0585-.01-.045-.0074-.0585-.01-.0454-.0074-.0606-.01-.0428-.0069-.0825-.0133-.0392-.0063-.0817-.0131-.0405-.0064-.0633-.01-.0441-.007-.0591-.0094-.0448-.007-.059-.0093-.0461-.0073-.058-.009-.0446-.007-.0616-.01-.0417-.0065-.072-.0111-.03-.0047-.0879-.0135-.0367-.0056-.0823-.0126L143.75,4.45l-.0664-.01-.0419-.0063-.0619-.0094-.0436-.0065-.06-.009-.0444-.0066-.0605-.0091-.0432-.0064-.0617-.0092-.0415-.0061-.0671-.01-.0368-.0054-.0867-.0127-.0329-.0049-.0853-.0124-.0355-.0051-.0685-.01-.04-.0058-.0627-.0091-.0427-.0061-.0608-.0087-.0442-.0063L142.5,4.266,142.46,4.26l-.0659-.0093-.039-.0055-.0673-.0094-.036-.0051-.0831-.0116-.0394-.0054-.0837-.0116-.0332-.0046-.069-.01-.0425-.0058-.0606-.0083-.0454-.0061-.0577-.0079-.045-.0061-.0608-.0082-.0426-.0057-.0617-.0082-.0422-.0057-.0638-.0085-.04-.0053-.0832-.011-.04-.0053-.08-.01-.0417-.0055-.0618-.008-.0435-.0057-.0609-.0078-.0423-.0055-.0611-.0078L140.822,4.04l-.06-.0076-.0431-.0055-.0621-.0079-.0415-.0052-.0668-.0084-.0363-.0046-.0862-.0108-.0349-.0043-.0842-.01-.0353-.0044-.0677-.0083-.0409-.005L140.1,3.95l-.0435-.0053-.0585-.0071-.0461-.0055-.0584-.0071-.0446-.0053-.059-.0071-.0447-.0053L139.6831,3.9l-.0405-.0048-.0786-.0092-.0474-.0056-.0777-.0091-.0371-.0043-.0669-.0077-.04-.0046-.0637-.0074-.0408-.0046-.0621-.0071-.0435-.005-.0609-.0068-.0416-.0047-.0648-.0073-.0386-.0043-.0712-.008-.032-.0035-.0876-.01-.0334-.0037-.0852-.0093-.0344-.0038-.0674-.0073-.0438-.0047-.0591-.0064-.0469-.005-.0542-.0058-.05-.0053-.0552-.0058-.0472-.005-.056-.0059-.0473-.005-.0591-.0061-.0433-.0045-.0751-.0078-.0576-.0059-.0693-.0071-.0461-.0047-.0566-.0057-.049-.005-.0536-.0054-.0493-.0049-.0535-.0053-.05-.005-.053-.0053-.0481-.0047L137.187,3.63l-.0459-.0045-.06-.0058-.0422-.0041-.0679-.0065-.0692-.0067-.0656-.0062-.0448-.0042-.0568-.0054-.0493-.0046-.0537-.005-.0506-.0047-.0511-.0048-.0513-.0047-.0524-.0048-.05-.0046-.0545-.0049-.0467-.0042-.06-.0054-.0436-.004-.0615-.0054-.0842-.0075-.0545-.0048-.0493-.0043-.0541-.0047-.05-.0043-.0515-.0045-.0519-.0044-.0506-.0044-.0523-.0044-.051-.0043-.05-.0042-.0523-.0044-.052-.0043-.0481-.004-.0538-.0045-.0462-.0037-.1038-.0085-.0493-.004-.0524-.0042-.0491-.0039-.0531-.0042-.05-.004-.0521-.0041-.0491-.0038-.0532-.0042-.05-.0039-.0526-.004-.0489-.0038L134.54,3.4l-.05-.0038-.0536-.004-.038-.0028-.12-.009-.0388-.0028-.0554-.0041-.0473-.0034-.054-.0039-.0483-.0035-.0533-.0038-.0488-.0035-.0547-.0039-.0465-.0032-.0552-.0039-.0467-.0032-.0558-.0039-.0474-.0032-.0533-.0037-.0533-.0036-.0913-.0061-.0556-.0037-.0472-.0031-.0548-.0036-.049-.0032-.0541-.0035L133.1169,3.3l-.0491-.0031-.0543-.0035-.0488-.0031-.0524-.0033-.05-.0031-.0522-.0032-.0508-.0031-.0514-.0032-.0443-.0027-.12-.0072L132.51,3.263l-.0561-.0033-.047-.0028-.0547-.0032-.0466-.0027-.0555-.0031-.0461-.0027-.0559-.0031-.0471-.0027-.0532-.0029-.0494-.0028-.0537-.0029-.0465-.0025-.0552-.003-.04-.0021-.112-.006-.0466-.0024-.0519-.0027-.0492-.0025-.0554-.0029-.0459-.0023-.0565-.0028-.0445-.0022-.0569-.0029-.0456-.0022-.0562-.0027L131.14,3.19l-.0591-.0028-.04-.0019-.0623-.0029-.0219-.001-.1463-.0067-.0267-.0013-.061-.0027-.0409-.0018-.0588-.0026L130.58,3.164l-.0582-.0026L130.48,3.16l-.06-.0025-.0394-.0017-.0611-.0025-.04-.0017-.061-.0025-.0383-.0015-.0627-.0025-.0247-.001-.1552-.006-.0143-.0005-.0665-.0025-.0352-.0013-.06-.0023-.0424-.0015-.0581-.0021-.0422-.0015-.06-.0021-.0419-.0015-.0588-.002-.0421-.0014-.0592-.002-.0393-.0013-.0634-.0021-.0069,0-.1774-.0056-.0082,0-.0671-.002-.0348-.0011-.0647-.0019-.0351-.0011L128.7952,3.1l-.0377-.0011-.0622-.0017-.04-.0011-.06-.0017-.0411-.0011-.0614-.0016L128.46,3.09l-.0679-.0017-.007,0-.173-.0043-.0128,0-.07-.0016-.0305-.0007L128.033,3.08l-.0351-.0008-.0644-.0014-.0358-.0008-.0637-.0013-.0371-.0008-.0646-.0013L127.7,3.073l-.069-.0013-.025,0c-.1115-.0021-.2272-.0041-.3387-.0059l-.0287-.0005-.0656-.001-.0362-.0006-.0607-.0009-.0409-.0006-.0611-.0008-.0382-.0006L126.874,3.06l-.0356,0-.067-.0009-.025,0c-.1113-.0013-.2318-.0026-.3432-.0036l-.022,0-.0693-.0006-.0326,0-.0674,0-.0307,0-.069-.0005-.0308,0-.07,0-.0264,0-.0736,0-.0192,0c-.1152-.0006-.2311-.001-.3463-.0012l-.0244,0-.0719,0h-.0269l-.0707,0h-.1267l-.072,0h-.0258l-.076,0h-.009c-.1191,0-.2478.0007-.3669.0013h-.0083l-.08,0-.0206,0-.0767,0-.0211,0-.0754.0005-.025,0-.075.0006-.0185,0-.0811.0007h-.0078c-.123.0011-.2455.0024-.3684.0039l-.0072,0-.0836.0011-.0148,0-.0793.0011-.02,0-.0783.0011-.0185,0-.08.0012-.0136,0q-.2319.0036-.4638.008l-.0027,0-.0828.0016-.0173,0-.0788.0016-.0189,0-.0788.0017-.0187,0-.0791.0017-.0172,0-.0818.0019-.0063,0c-.1266.0029-.2454.0059-.372.0092l-.0033,0-.0849.0022-.0138,0-.0805.0022-.0178,0-.08.0022-.0163.0005-.0813.0024-.0134,0c-.1858.0054-.3685.0112-.5541.0175l-.0086,0-.0851.0029-.0124,0-.0833.003-.014,0-.0855.003-.0043,0c-.2212.008-.4343.0163-.6552.0256l-.0089,0-.0883.0037-.0057,0-.0914.0039h0c-.1894.0083-.3757.0168-.5649.0258l-.0042,0-.0911.0045-.0037,0-.0921.0046-.002,0A121.7841,121.7841,0,0,0,97.1957,6.3346l7.38,31.1372a89.7768,89.7768,0,0,1,40.29-.284l6.8678-31.2543ZM48.24,30.384q-2.7077,2.1885-5.2925,4.5309l-.0024.0021-.0661.06-.0028.0025c-.1593.1446-.3148.2865-.4734.432l-.0036.0033-.0653.06-.0025.0024c-.1358.1248-.2694.2481-.4047.3735l-.0009.0008-.0638.0592-.0067.0062-.064.0595-.0012.0011c-.1351.1256-.2667.2485-.4012.3748l-.0042.0039-.0615.0577-.0093.0088-.0616.058-.0012.001c-.112.1054-.22.2072-.3313.313l-.0048.0046-.0607.0576-.0091.0086-.0584.0555-.0107.01c-.1309.1245-.26.2475-.39.3726l-.0063.006-.0609.0585-.0069.0067-.0612.0589-.0053.0051c-.1109.1067-.2169.2092-.3274.3163l-.0013.0013-.0609.0591-.009.0088-.0588.0571-.0086.0084-.06.0579-.0055.0053c-.11.1074-.213.208-.3229.3158l-.0048.0047-.06.0593-.0082.0081-.0592.0581-.0072.0072c-.1042.1026-.2151.2121-.3189.3151l-.0066.0065-.0576.0572-.0107.0107-.0565.0561-.01.01-.0587.0584-.0032.0032c-.1063.106-.2134.2132-.3194.3195l-.0075.0075-.0582.0585-.0083.0084-.0591.0594-.0057.0058c-.1085.1092-.21.2124-.3187.3221l-.0034.0035-.0579.0587-.01.01-.0579.0589-.0066.0067-.0592.06-.006.0061c-.1025.1045-.2121.2166-.3142.3214l-.0067.0069-.0562.0577-.0119.0123-.0559.0576-.0072.0074c-.1046.1077-.2112.2179-.3154.3261l-.0019.0019-.0587.0611-.0085.0087-.055.0572-.0125.013-.0549.0573-.0077.008c-.1014.1057-.2046.2137-.3056.32l-.0124.013-.0525.0552-.0133.014-.0529.0557-.0126.0133-.0544.0573-.0058.0061c-.0821.0868-.165.1745-.247.2615l-.0034.0036-.0553.0588-.0119.0126-.0534.0569-.0117.0124-.054.0575-.0092.01c-.0817.0872-.1641.1754-.2456.2628l-.0011.0012-.0558.06-.01.0107-.0523.0563-.0145.0156-.0507.0546-.014.015-.0525.0567-.0082.0089c-.0786.0849-.1583.171-.2366.2561l-.0108.0117-.05.0547-.0158.0172-.0492.0535-.0155.0169-.051.0556-.0119.013-.053.0579L34.8227,43c-.0781.0854-.1548.1694-.2327.255l-.0158.0174-.0479.0527-.0168.0185-.0482.0532-.0166.0182-.05.0548-.0105.0117c-.0777.0858-.1565.1731-.2339.2591l-.0082.0091-.05.055-.0164.0183-.0488.0542-.0154.0172-.0487.0543-.0151.0169-.0508.0567-.0063.0071c-.0772.0863-.1553.1738-.2322.26l-.0125.014-.0486.0546-.0167.0189-.0491.0553-.0121.0137-.0527.0595-.0078.0088c-.0767.0867-.157.1776-.2335.2646l-.0073.0083-.0494.0562-.0161.0183-.045.0513-.0205.0233-.0448.0511-.0178.02-.0468.0535-.0123.0141c-.0737.0843-.1484.17-.2219.2545l-.0165.019-.0444.0512-.02.0234-.0425.0489-.023.0266-.0416.0481-.02.0236-.0449.0519-.01.0116c-.0555.0643-.113.131-.1684.1955l-.0054.0063-.0485.0564-.0164.0191-.0462.0539-.0169.02-.0451.0527-.0188.0219-.0463.0541-.0109.0128q-.1129.1321-.2254.2646l-.0086.01-.0482.0567-.0166.02-.0453.0535-.0177.0209-.0442.0522-.02.0233-.0451.0533L31.58,46.69c-.0549.065-.11.13-.1646.1955l-.01.012-.0474.0564-.0152.0181-.0461.055-.0164.02-.0462.0552-.0161.0192-.0452.0542-.0171.02c-.0694.0832-.1443.1732-.2135.2565l-.0145.0174-.0451.0544-.0171.0207-.0439.053-.0194.0234-.0427.0517-.0188.0228-.044.0533-.0139.0169c-.0517.0627-.107.13-.1585.1926l-.0081.01-.0454.0554-.0172.021-.0443.054-.0175.0215-.0437.0534-.0179.0219-.0447.0547-.0144.0177-.0473.058-.0042.0051-.1637.2014-.01.0129L30,48.6l-.0187.0231-.0422.0521-.0189.0234-.0427.0529-.0186.023-.0432.0536-.0147.0182-.157.1953-.0064.008-.0451.0563-.0171.0213-.0413.0516-.0208.026-.0412.0516-.0191.024-.042.0526-.0174.0219-.0449.0563-.0052.0066c-.0506.0636-.1067.1342-.1572.198l-.0142.0179-.0431.0545-.0178.0225-.0418.0528-.02.0255-.0405.0513-.02.0248-.0417.0529-.0169.0214-.1442.1837-.0162.0207-.0389.05-.0224.0286-.038.0486-.0233.03-.0371.0474-.0233.03-.0388.05-.02.0259-.04.0515-.0179.023-.14.181-.0183.0235-.0392.0507-.022.0286-.0378.0489-.0226.0293-.0372.0482-.0241.0314-.0369.048-.02.0261-.0411.0535L28.03,51.1l-.0982.1281-.0151.02-.0384.05-.0219.0287-.0374.049-.0227.03-.0372.0488-.0233.0307-.0362.0475-.0239.0315-.0368.0484-.02.0265-.1309.1728-.0248.0328-.0331.0439-.0271.036-.033.0437-.0273.0362-.0333.0443-.0264.035-.0333.0444-.0276.0368-.0327.0436-.0243.0324-.073.0976-.0175.0234-.0347.0465-.0258.0346-.0334.0448-.0264.0353-.0331.0446-.0264.0355-.0334.045-.027.0363-.032.0431-.0269.0363-.1209.1635-.0269.0364-.0312.0424-.0294.04-.0308.0418-.0273.037-.0327.0445-.0274.0374-.0314.0428-.03.04-.0292.04-.0347.0475-.0428.0585-.0383.0525-.0268.0368-.0331.0454-.0263.0362-.033.0454-.0281.0387-.031.0426-.0282.0389-.03.0418-.03.0414-.0314.0435-.0262.0362-.0568.0787-.0222.0308-.0371.0515-.0257.0357-.0329.0457-.0266.0371-.0337.047-.0254.0353-.0333.0466-.026.0363-.0344.048-.0246.0344-.0389.0545-.02.0277-.0568.08-.0224.0316-.0361.0507-.0249.035-.0346.0488-.0234.033-.036.0508-.0237.0334-.0359.0508-.0226.032-.0372.0528-.022.031-.0572.0813-.0093.0132-.0479.0681-.0233.0331-.0359.0512-.0227.0324-.0357.051-.0232.0331-.0364.0521-.022.0315-.0373.0534-.0211.03-.0462.0662-.0115.0165-.0581.0835-.0143.0207-.0431.0621-.0215.031-.0361.0521-.0235.0339-.0356.0516-.0214.0309-.0381.0552-.02.0295-.04.0585-.0174.0253-.0573.0832-.0062.0091-.0517.0754-.0174.0254-.04.0578-.0215.0313-.0365.0534-.022.0323-.0354.0519-.0221.0324-.0387.0568-.0183.0268-.0487.0717-.0081.012-.0584.0861-.0078.0114-.0494.073-.016.0237-.0418.0618-.0171.0254-.0408.06-.0176.0261-.0421.0625-.0146.0218-.0467.0694-.0111.0166-.1155.1723-.0111.0167-.0458.0684-.0165.0248-.04.0594-.02.0292-.0387.0582-.0177.0266-.0416.0627-.0151.0226-.0522.0788-.0039.0058-.0582.088-.006.0092-.0506.0765-.0141.0214-.0425.0644-.0168.0255-.04.0611-.0167.0255-.0416.0633-.0148.0226-.0506.0772-.0044.0067-.1166.1784-.0038.0059-.0514.0789-.0137.021-.0433.0666-.0142.0218-.042.0648-.0152.0234-.0445.0686-.0112.0173c-.0568.0878-.1141.1766-.1707.2646l-.0074.0114-.0484.0753-.0115.018-.0446.07-.0133.0206-.0449.07-.01.0162-.0515.0806-.004.0063c-.057.0892-.1148.18-.1715.2693l-.0059.0094-.0495.078-.01.0151-.0473.0747-.0093.0148-.0488.0773-.0068.0108c-.0572.09-.1138.1805-.1706.2712l-.0007.001-.0541.0863-.0079.0127-.0483.0773-.0079.0126-.0493.079-.0066.0106-.0545.0875,0,0c-.0572.0919-.1138.1831-.1707.2751l-.0015.0024-.0536.0868-.0054.0087-.05.0816-.006.01-.053.0859-.0017.0028c-.0756.123-.15.2447-.2253.368l-.0009.0015-.0549.09-.0019.0031c-.1121.1841-.2242.3694-.3354.5542l0,.0009a121.704,121.704,0,0,0-5.7583,10.76L43.45,86.91a90.8025,90.8025,0,0,1,24.9044-31.638L48.24,30.384Zm-13.52,95.9493-31.9995.17a122.1894,122.1894,0,0,0,12.4744,53.0921l28.7417-14.068a90.7914,90.7914,0,0,1-9.2166-39.1941Zm34.5371,70.6236L49.4189,222.0662c.59.466,1.1871.9289,1.7862,1.3845l.0078.0059.0663.05.01.0074.0657.05.0095.0073.0669.0506.0066.005c.1176.089.24.1811.3578.27l.0121.0091.06.0453.0171.0128.0577.0432.0211.0158.0571.0427.0184.0138.0585.0436.02.0147.0585.0436.0113.0085.2058.1529.01.0074.0555.0412.0238.0176.05.037.03.0221.0492.0363.0294.0217.0481.0355.0317.0234.0487.0358.029.0213.049.036.0321.0235.0475.0349.0229.0168.0971.071.0337.0246.0437.032.038.0277.04.0291.04.0294.0391.0285.0424.0308.0388.0282.0406.03.04.0289.0424.0307.038.0276.0472.034.0326.0236.0789.057.0246.0177.0561.04.0324.0234.0493.0354.0315.0226.0508.0365.0316.0226.05.0358.032.023.05.0355.0323.0231.0547.039.0252.018.0683.0487.0133.0095.1656.1177.0176.0124.0657.0467.02.0144.0611.0431.0251.0178.0577.0408.0258.0182.0562.04.0269.0189.0619.0436.0193.0136.0817.0573h0l.1693.1186.0135.01.07.0486.0184.0127.0642.0448.0224.0156.0622.0433.0206.0144.0628.0435.0221.0154.07.0488.0106.0074c.0846.0586.1706.118.2554.1764l.0086.0059.0761.0524.0121.0083.0714.0491.0159.0109.0695.0477.0157.0107.0692.0474.0157.0107.0791.0541.0033.0022c.0869.0594.1729.1179.26.177l.0012.0008.0838.0569.0071.0048.0779.0527.01.007.0763.0515.0094.0064.0774.0522.0086.0058c.1447.0974.2883.1937.4334.2906l.0034.0022.0814.0544.0088.0058.0791.0527.0066.0044.0822.0546.004.0026c.1463.0972.2913.1929.4381.29l.0008,0,.0865.0568.0023.0016c.2351.1542.4687.3064.705.4591l.0015.001a121.83,121.83,0,0,0,24.354,12.1249l.0025.0009q.8678.3169,1.7412.6212l0,0q2.0069.699,4.05,1.3324l.0008,0q1.205.3735,2.4218.7235l0,0,.1055.03.0005,0q1.2178.3492,2.4476.6747h0l.1065.0281.0008,0q2.3006.6067,4.6424,1.13l6.9687-31.2319a89.7539,89.7539,0,0,1-36.3987-17.2679Zm112.9715-.5631a91.5866,91.5866,0,0,1-36.279,17.68l7.2772,31.1615.0163-.0038.0564-.0132.0418-.01.077-.0181.0346-.0081.0829-.02.0344-.0081.0646-.0153.04-.01.0593-.0141.04-.01.06-.0142.04-.01.0637-.0153.0342-.0082.08-.0192.0272-.0065.0892-.0216.0346-.0084.0638-.0155.0391-.01.0608-.0148.04-.01.0582-.0142.0412-.01.0608-.0149.038-.0093.0767-.0189.0213-.0052.0964-.0238.0364-.0091.0612-.0152.0428-.0106.0568-.0142.04-.01.0612-.0153.0384-.01.063-.0158.0354-.0089.0752-.0189.0238-.006.0968-.0245.0319-.0081.0653-.0165.04-.01.0588-.015.041-.01.0574-.0146.0414-.0106.0615-.0158.0366-.0094.0736-.0189.0244-.0063.0966-.025.0315-.0082.0666-.0172.0394-.01.059-.0153.04-.01.06-.0158.0388-.01.0638-.0167.0336-.0089.0723-.019.0275-.0072.0959-.0253.0307-.0082.0669-.0177.0379-.01.0612-.0163.0393-.01.059-.0158.0392-.0105.0655-.0175.0316-.0085.08-.0214.0188-.005.0978-.0264.0276-.0075.07-.0188.0393-.0107.0591-.016.0387-.0106.0607-.0165.0392-.0107.0623-.017.0342-.0094.0722-.02.0268-.0074.098-.027.0164-.0045.0793-.0219.0365-.01.0625-.0173.0381-.0106.0585-.0163.04-.0112.0624-.0175.0346-.01.0733-.0206.0241-.0067.0981-.0276.017-.0048.0806-.0228.033-.0093.0647-.0183.0352-.01.0642-.0182.0358-.01.0652-.0186.0316-.009.0722-.0207.0272-.0077.0981-.0282.0063-.0018.0915-.0264.025-.0071.0742-.0215.0291-.0084.0677-.02.0335-.01.0686-.02.029-.0084.0775-.0227.02-.0059.0984-.0288.0155-.0046.0808-.0237.0356-.0105.0625-.0184.0359-.0106.0631-.0186.0357-.0106.0652-.0193.0317-.0094.0724-.0216.0258-.0077.1953-.0583.0274-.0083.07-.021.0333-.01.0648-.0195.0331-.01.07-.0212.0269-.0082.08-.0242.0175-.0053.197-.06.0268-.0081.07-.0215.0325-.01.0655-.02.0339-.01.0662-.02.0309-.01.0712-.022.0272-.0084.1945-.06.0249-.0077.0727-.0227.031-.01.066-.0206.0331-.01.0682-.0214.0287-.009.08-.0252.0157-.005.1985-.0628.019-.006.0782-.0248.0265-.0085.0722-.023.028-.0089.0718-.023.0258-.0082.0779-.025.02-.0064.1975-.0636.0154-.005.0814-.0263.0273-.0089.0681-.0221.0331-.0107.0674-.022.0288-.0094.0755-.0246.021-.0069.1982-.065.01-.0031.0864-.0285.0246-.0081.0727-.024.028-.0093.0724-.024.0243-.008.0767-.0255.022-.0073.1971-.0658.0078-.0026.0908-.0305.0168-.0056.0783-.0263.0263-.0089.0743-.025.0226-.0077.0811-.0274.0161-.0054.1991-.0676.0044-.0016.0931-.0317.0165-.0056.0811-.0278.0215-.0074.0782-.0268.02-.0068.0807-.0277.0182-.0063.1975-.0682.0059-.002.09-.0315.022-.0076.0741-.0257.0266-.0093.0744-.026.0221-.0077.0789-.0276.0184-.0065c.0973-.0341.1968-.0691.2941-.1035l.0187-.0066.0785-.0277.0229-.0082.0767-.0272.02-.0071.08-.0284.0186-.0067q.1475-.0525.2947-.1054l.014-.0051.081-.0291.0237-.0086.0751-.027.0225-.0082.08-.029.0154-.0056c.099-.0359.1967-.0714.2956-.1075l.012-.0044.0853-.0312.0175-.0064.0812-.03.0169-.0062.0857-.0315.0112-.0042c.1-.0367.1981-.073.2979-.11l.0056-.002.0892-.0332.0184-.0069.0812-.03.0161-.006.085-.0317.0122-.0046c.1-.0373.1983-.0743.2979-.1119l.001,0,.0948-.0358.0134-.0051.085-.0322.0136-.0051.0857-.0326.0129-.0049c.1319-.05.2612-.1.393-.15l.0116-.0044.0868-.0334.0125-.0049.0863-.0332.012-.0047c.1316-.0508.2613-.1011.3927-.1524l.0113-.0044.0865-.0338.0126-.005.0866-.0339.0113-.0045c.1314-.0515.2616-.1028.3927-.1548l.0089-.0035.09-.0358.0086-.0034.0914-.0364.0063-.0025c.1311-.0522.2639-.1054.3948-.158l.0061-.0025.0907-.0365.01-.0042.0864-.0349.013-.0052c.13-.0525.2607-.1057.39-.1586l.0086-.0035.0885-.0363.0111-.0045.09-.037.0054-.0022q.1972-.081.3942-.1627l.0033-.0013.092-.0382.0106-.0044.0878-.0366.01-.0039q.1952-.0814.39-.1635l.0067-.0029.09-.0378.01-.0043.0888-.0375.0073-.0031c.1628-.0689.3266-.1385.489-.2081l.005-.0021.0925-.04.006-.0026c.1624-.07.3266-.1406.4887-.211l.0039-.0016.0936-.0407.0046-.002c.163-.071.3268-.1427.49-.2144l.0005,0,.0956-.0422.0041-.0018q.2931-.1294.5854-.26l.0023-.001q.2923-.131.5844-.2636l.003-.0014c.1955-.0887.3892-.1773.5842-.267h0c.1949-.09.3888-.18.5832-.27l.0016-.0007c.1944-.0908.3877-.1816.5817-.2734l0,0q.2908-.1377.5806-.2765l.0008,0a123.3981,123.3981,0,0,0,23.8881-15.0369l-20.0331-24.9535Zm65.869-71.0153-32,.0639a91.7469,91.7469,0,0,1-8.8594,39.395l28.89,13.7616q.5678-1.1919,1.1111-2.3993l.0017-.0037.0379-.0842.0012-.0029.0382-.0851.0005-.001c.065-.1452.1292-.2891.1937-.4346l0-.001.0361-.0813.0041-.0094.0344-.0778.0057-.0129.0332-.0753.0066-.0149.034-.0772.0012-.0027q.0744-.1695.1484-.339l.0048-.011.0307-.0705.01-.0224.0292-.0672.01-.0237.029-.0668.011-.0255.0289-.0667.0092-.0215.03-.07.0062-.0145c.0348-.0805.07-.1619.1043-.2425l.0043-.01.0288-.0672.0109-.0254.0279-.0653.0114-.0269.0268-.0628.0129-.03.0267-.0628.0123-.0289.0266-.0626.0124-.0293.0271-.0641.008-.0189c.0311-.0735.0619-.1466.0929-.22l.0138-.033.0233-.0555.0161-.0383.0227-.0542.0169-.0405.0223-.0533.0163-.039.0232-.0556.016-.0386.0226-.0542.0172-.0414.0217-.0524.0173-.0417.0415-.1.0168-.0407.0213-.0517.0178-.0432.02-.0494.0186-.0453.0207-.05.0181-.044.02-.05.018-.0439.021-.0514.0184-.0452.02-.0478.0221-.0543.0165-.0406.0371-.0914.017-.0419.0211-.0522.0188-.0463.02-.05.0183-.0455.02-.05.0184-.0457.02-.0511.0175-.0435.0214-.0535.0168-.042.0233-.0581.0149-.0373.03-.0741.0132-.0331.0327-.0821.0137-.0346.0244-.0615.0155-.0392.0224-.0565.0161-.041.0218-.0551.0166-.0421.0216-.0549.0159-.0405.0225-.0574.0156-.04.0253-.0647.0118-.03.0377-.0964.0048-.0125.0328-.0841.0111-.0287.0262-.0675.0133-.0342.0247-.0636.0131-.0339.0251-.0651.012-.0309.0273-.071.01-.0261.0292-.076.0084-.0219.0754-.197.0057-.015.0309-.081.0114-.03.0256-.0673.0126-.0332.0248-.0656.0119-.0313.0259-.0684.0113-.03.027-.0716.01-.0257.0292-.0777.0079-.0209.0737-.1968.0075-.02.0292-.0783.01-.0264.0264-.0708.0111-.03.0265-.0716.01-.0263.0274-.074.0091-.0247.03-.0813.0061-.0167.074-.2013,0-.0007.0352-.0963.0084-.023.0278-.076.0091-.0249.0271-.0747.01-.0263.0273-.0751.0083-.023.029-.08.007-.0195.0341-.0944.0012-.0034.0734-.2041.0024-.0068.0328-.0916.0067-.0188.0292-.0817.0075-.021.0273-.0769.0092-.0257.0273-.077.0078-.022.0292-.0826.006-.0168q.0535-.1516.1067-.3032l.004-.0115.0307-.0876.0072-.0207.0275-.0787.0084-.0243.026-.0747.01-.0275.0268-.0775.007-.02.0315-.0909.0029-.0085.07-.2043.0027-.0079.0318-.0926.0058-.0169.0281-.0824.008-.0235.0261-.0765.0088-.0257.0257-.0757.0084-.0247.0279-.0824.0057-.0167c.0344-.1018.069-.2043.1032-.3062l.0026-.008.0307-.0915.0064-.0192.0273-.0818.0071-.0212.0274-.0823.0061-.0183.0282-.0851.0056-.0167.0317-.0958.0012-.0038c.0342-.1033.0677-.2051.1016-.3085l.005-.0155.0279-.0853.0068-.0208.0263-.0805.0072-.0223.0263-.0808.0068-.0209.0268-.0827.0062-.0191.0314-.0972.0008-.0025.0669-.2081.002-.0062.03-.0926.0075-.0232.0251-.0788.0076-.0238.0246-.0772.0083-.0261.0251-.0792.0066-.0209.0275-.0869.0045-.0144c.0323-.1023.0647-.2053.0968-.3078l.0059-.0192.0249-.08.0092-.0294.023-.0739.0085-.0274.0231-.0745.0085-.0273.0251-.0811.0057-.0187.0294-.0953.0018-.0057.0642-.2091.0016-.0054.0292-.0957.0058-.019.0248-.0814.0082-.0271.0228-.0751.0082-.0268.0231-.0764.008-.0265.0255-.0848.0044-.0145.0306-.1019,0-.0007.062-.2075.0055-.0185.0249-.0836.0074-.0249.0222-.0749.0093-.0314.0214-.0722.0087-.0295.0222-.0753.0077-.0261.025-.0853.0047-.0161.0608-.2078.0027-.0093.0266-.0914.0076-.0265.0217-.0746.0092-.0317.02-.07.01-.0345.02-.07.0089-.0309.0216-.0754.0078-.0273.0246-.0861.0044-.0151.0588-.2069.0061-.0215.0224-.0789.0091-.0323.02-.07.01-.0357.0185-.0658.01-.0364.0194-.0693.0091-.0326.0206-.0738.0079-.0281.0273-.0981c.0011-.004,0,.0009.0008-.003l.029-.1046.0044-.0158.0237-.0859.008-.029.02-.0732.0092-.0335.019-.07.0091-.0331.0194-.0708.009-.0331.02-.0719.0082-.03.022-.0807.0058-.0215.0557-.2064.0068-.0252.0206-.0768.0091-.0338.0183-.0683.01-.0363.0177-.0666.01-.0381.0168-.0633.0107-.04.0176-.0665.0092-.035.0225-.0854.0043-.0159.0273-.1038.0046-.0179.022-.0838.009-.0347.0178-.068.01-.0368.0173-.0666.01-.0384.0165-.0638.01-.04.0167-.0647.01-.0383.0183-.0713.0079-.03.0239-.0935.0025-.01.026-.1017.0085-.0336.0175-.0687.01-.0389.0165-.0653.01-.0388.0159-.063.01-.0418.0159-.0629.01-.04.0162-.0644.01-.039.02-.0784.0057-.0229.0259-.1041.0032-.0129.0224-.09.0073-.03.0181-.0736.0088-.0355.0167-.0681.0091-.0371.016-.0656.01-.04.0161-.0658.0089-.0367.0169-.07.0085-.0349.0224-.0928.0022-.0091.0251-.1042.0059-.0244.0191-.08.0079-.033.0165-.0691.01-.04.0154-.0648.0094-.04.0152-.0643.01-.04.0156-.0661.0089-.0376.0167-.0709.0076-.0328.0242-.103.0023-.01.0219-.0938.0076-.0327.0164-.0705.009-.039.0149-.0643.01-.0425.0144-.0622.0093-.0406.0149-.0648.0092-.04.0153-.0668.0084-.0365.0175-.0769.0062-.0275.0235-.1034.0054-.0237.0178-.0792.0085-.0376.015-.0666.0094-.0419.0136-.0607.01-.0442.0139-.0624.0092-.0415.0142-.064.0089-.04.0154-.0694.0077-.0348.0228-.1035h0l.0221-.1008.0076-.0349.0145-.0665.0088-.04.0132-.0607.0091-.0422.0129-.0592.01-.0447.0121-.056.01-.0448.0123-.0572.01-.045.012-.0563.01-.0444.0121-.0567.01-.0462.0117-.0551.01-.0451.0125-.0595.0088-.0416.0147-.07.0063-.03.0165-.0786.0066-.0316.0194-.0931.0063-.03.0146-.07.008-.0386.0132-.0641.0082-.04.0122-.0593.0093-.0451.0119-.058.0086-.0423.012-.0587.0088-.0431.012-.0591.0086-.0427.0117-.0577.0089-.0443.0119-.0591.0084-.0415.0122-.061.0082-.0406.0126-.0632.0077-.0386.0132-.0663.0069-.0352.02-.1.0064-.0323.0135-.0686.0083-.0419.0115-.0591.0087-.0444.011-.0564.009-.0465.0107-.0547.0089-.046.0108-.0558.0089-.0461.01-.0543.0092-.0479.01-.0519.01-.05.01-.0528.009-.0473.01-.0555.0086-.0456.0114-.06.0076-.04.0126-.0672.0065-.0345.0187-.1.0054-.0287.0134-.072.0077-.0417.0109-.0588.0089-.0481.01-.0516.0092-.05.01-.0521.0088-.0479.01-.0533.0086-.0473.01-.055.0084-.0459.01-.0556.0082-.045.01-.0573.008-.0447.01-.0545.0084-.0473.0093-.0521.0089-.05.0089-.05.0089-.05.0118-.0666.0135-.077.01-.0549.0083-.0476.0094-.0535.0081-.047.01-.0544.0083-.048.0091-.0527.0083-.0479.0092-.0535.0082-.0479.0092-.0534.0081-.0474.0089-.0525.0086-.05.0085-.05.0084-.05.0089-.0525.0081-.0481.01-.0579.007-.0418.01-.06.0071-.0427.0138-.0827.0085-.0514.01-.064.008-.0484.0087-.053.0084-.0511.0078-.0479.0088-.0545.0077-.0472.0085-.0524.0078-.048.0083-.0517.0081-.05.0082-.0512.0075-.0472.0086-.0539.0077-.048.0083-.0523.0077-.0488.0081-.0511.0081-.0518.0078-.0494.0075-.0484.0083-.0528.008-.0519.0118-.076.011-.0709.0065-.0421.0088-.0576.0077-.05.0076-.05.008-.0521.0074-.0491.0076-.05.0077-.051.0076-.0508.0075-.05.0076-.0506.0073-.0488.008-.0534.0071-.0483.0075-.05.0077-.0523.0073-.0493.0076-.0519.007-.0481.0078-.0536.007-.048.01-.0705.0041-.0288.0142-.0982.007-.0493.0075-.0523.0071-.0495.0071-.05.007-.0493.0076-.0537.0066-.0468.0074-.0525.0069-.0494.0072-.0514.0071-.0512.0067-.0479.0072-.0524.0067-.0484.0073-.0534.0062-.0446.0077-.0564.0056-.0413.0082-.06.0049-.0361.0085-.0633.0049-.0359.03-.2289.0041-.03.008-.0606.0053-.04.0078-.06.0053-.04.0076-.0584.0055-.0424.0074-.0569.0057-.0441.0071-.055.0058-.0455.0071-.0555.0057-.0447.007-.0551.0058-.0455.0069-.0549.0058-.0458.0068-.0543.0056-.0448.007-.0563.0048-.0385.0266-.2155.0052-.0425.0074-.0607.0045-.0376.0076-.0623.0046-.0385.007-.0584.0051-.0424.0067-.0563.0053-.0446.0066-.056.0051-.0431.0067-.0571.0052-.0437.0065-.056.0053-.0455.0062-.0535.0055-.0479.0062-.0535.0048-.0422.0067-.0587.0042-.0366.0255-.2263.0036-.0321.0072-.0645.0038-.0347.007-.063.0041-.0376.0064-.0584.0047-.0423.0063-.0584.0044-.0408.0065-.06.0042-.0388.0067-.0627.0039-.0361.0066-.0624.004-.0375.0066-.063.0037-.0353.0067-.064.0036-.034.0069-.0661.003-.0293.0072-.07.0006-.006.0189-.1852,0-.002.0075-.074.0025-.0254.0067-.0664.0034-.0345.0064-.0645.0034-.0339.0063-.0638.0036-.0374.006-.061.0037-.0385.0059-.0607.0039-.04.0058-.06.0035-.037.006-.0635.0033-.0339.0063-.0668.0024-.0265.0069-.0732.0018-.02c.0109-.1164.0207-.2232.0312-.3395l.0029-.0323.0059-.0664.0029-.0323.0058-.0645.0031-.0355.0056-.0636.0032-.036.0054-.0621.0033-.0372.0055-.0639.003-.0347.0054-.0636.0031-.0359.0055-.0644.0028-.0336.0055-.0652.0025-.0306.006-.0717.0009-.0105c.0126-.1524.025-.3058.0371-.4582l.0014-.0173.0058-.0746.002-.0249.0053-.0687.0025-.0323.0053-.068.0022-.0286.0053-.07.0022-.0294.0053-.07.002-.0269.0054-.0712.002-.0277.0054-.0725.0014-.02.0058-.08.0007-.0087c.011-.1522.0224-.3133.0329-.4655l.0006-.01.0053-.0766.0016-.024.0049-.0726.0017-.0258.0049-.0726.0017-.0256.0048-.0724.0017-.0267.0046-.07.0018-.0284.0047-.0726.0014-.0208.0049-.0784.001-.0158.0053-.0834,0-.0052c.012-.1921.0229-.3748.034-.5668l0-.0065.0049-.0852.0008-.0137.0046-.0825.0009-.0152.0044-.0805.0011-.0184.0044-.08.0008-.0148.0045-.0839.0006-.0111.0047-.0874,0-.0048c.0134-.2519.026-.5061.0378-.7578l0-.0087.004-.0859,0-.0118.0039-.0858.0005-.0107.0038-.0854.0005-.012.0038-.086,0-.009.0038-.0884,0-.0056c.0109-.2556.0209-.507.03-.7623v0l.0034-.0944,0-.002.0032-.0925,0-.0048.0031-.091,0-.0054.0031-.0918,0-.0027q.0717-2.154.0672-4.2995ZM201.7127,29.6624l-19.92,25.0436A91.6136,91.6136,0,0,1,207.01,86.2193l28.7877-13.9737a123.3955,123.3955,0,0,0-11.6146-19.24l-.0012-.0016q-.19-.2577-.38-.5139l-.0034-.0046q-.159-.2137-.3187-.4266l-.0011-.0013-.0608-.0809-.006-.0081-.0583-.0774-.0049-.0066c-.0847-.1123-.1706-.226-.2556-.3381l-.0033-.0043-.0593-.078-.0072-.01-.0581-.0764-.0047-.0061c-.086-.1129-.1716-.2249-.2579-.3374l-.0023-.0031-.0607-.079-.0065-.0084-.0583-.0758-.0061-.008-.0618-.08-.0015-.0018q-.0972-.126-.195-.2522l-.0045-.0059-.0577-.0742-.0109-.0142-.0553-.0711-.0074-.0095-.0617-.0792-.0018-.0023c-.0659-.0845-.131-.1679-.1972-.2522l-.0015-.0019-.061-.0779-.0091-.0116-.0556-.0707-.01-.0125-.0567-.072-.0075-.01c-.065-.0825-.1295-.1641-.1947-.2464l-.0089-.0113-.0546-.0688-.0139-.0175-.0508-.064-.0134-.0168-.0527-.0663-.012-.0151-.13-.1627-.0028-.0035-.062-.0774-.01-.0123-.0532-.0664-.0152-.0189-.0513-.0639-.0133-.0165-.053-.066-.0116-.0144q-.0978-.1213-.1959-.2427l-.0106-.0131-.0528-.0652-.017-.0209-.0491-.06-.0148-.0183-.0525-.0645-.013-.016-.0606-.0744-.0036-.0044-.0671-.0823-.0008-.001-.0643-.0787-.011-.0134-.0529-.0647-.017-.0207-.0483-.0588-.0178-.0217-.0493-.06-.0153-.0187-.0589-.0715-.0056-.0068-.1319-.16-.0146-.0176-.0495-.06-.0206-.0248-.0446-.0539-.02-.0247-.0468-.0564-.0185-.0222L219.63,47.19l-.01-.0115-.0665-.08-.0044-.0053-.061-.073-.0161-.0193-.0485-.058-.02-.0243-.0458-.0547-.0208-.0248-.045-.0537-.0209-.0248L219.22,46.7l-.0136-.0161-.1312-.1556-.02-.0238-.044-.0521-.0255-.03-.0413-.0488-.0231-.0273-.0437-.0514-.0229-.027-.0476-.056-.0172-.02-.0659-.0774-.0044-.0052-.0619-.0726-.0167-.02-.0482-.0564-.0229-.0267-.0434-.0507-.0239-.0279-.0421-.0492-.024-.0279-.0487-.0567-.0165-.0192-.1331-.1546-.016-.0186-.05-.058-.0216-.025-.0448-.0517-.0227-.0263-.0443-.0511-.0231-.0267-.0484-.0558-.0172-.02-.0638-.0734-.0072-.0083-.0619-.071-.0215-.0247-.0446-.0511-.0246-.0282-.0433-.05-.024-.0274-.0424-.0485-.0253-.0289-.0452-.0515-.021-.024-.0649-.0737-.0014-.0017-.0661-.0751-.0239-.0271-.042-.0477-.0281-.0318-.04-.0455-.0254-.0287-.0424-.0479-.0259-.0293-.0439-.0495-.0226-.0255-.05-.056-.0265-.03-.0572-.0643-.0225-.0252-.0433-.0486-.0293-.0329-.0374-.0418-.0314-.0352-.0346-.0387-.032-.0357-.0382-.0426-.0286-.032-.0463-.0516-.02-.0227-.0646-.0719-.0278-.0309-.04-.0438-.0308-.0342-.0366-.0405-.03-.0335-.0385-.0426-.0291-.0322-.0414-.0457-.0254-.028-.0484-.0534-.02-.0223-.0652-.0718-.0274-.03-.0393-.0431-.0306-.0336-.0384-.0421-.03-.0328-.0374-.041-.0311-.034-.0376-.0411-.03-.0333-.0462-.05-.02-.0223-.0659-.0717-.03-.0324-.0374-.0406-.0339-.0368-.0344-.0374-.0318-.0344-.0378-.041-.0313-.0339-.0366-.04-.0315-.0341-.04-.0435-.0279-.03-.0661-.0713-.0243-.0261-.0428-.046-.0318-.0342-.0366-.0393-.0334-.0358-.0341-.0366-.0342-.0367-.0365-.039-.0317-.0339-.0382-.0408-.0306-.0328-.0649-.0692-.0283-.03-.0407-.0433-.0315-.0335-.0374-.04-.0318-.0338-.037-.0392-.0329-.0349-.0374-.04-.0308-.0326-.038-.04-.0326-.0343-.0652-.0689-.025-.0264-.0438-.0461-.0294-.0309-.0411-.0432-.03-.0316-.0375-.0393-.0337-.0354-.0362-.0379-.0329-.0344-.04-.0419-.0287-.03-.0665-.0694-.03-.0309-.039-.0408-.0348-.0362-.035-.0363-.0337-.0352-.0361-.0374-.0346-.0359-.0351-.0364-.0342-.0355-.0357-.037-.0345-.0357-.0655-.0677-.0317-.0326-.037-.0382-.0357-.0368-.0349-.0359-.035-.0361-.0342-.0351-.0356-.0365-.0366-.0376-.033-.0339-.0368-.0377-.034-.0348-.0525-.0536-.0456-.0467-.0371-.0379-.0366-.0372-.0338-.0345-.0354-.036-.0351-.0357-.0358-.0365-.0348-.0352-.0351-.0357-.0354-.0359-.0358-.0363-.0413-.0417-.0572-.0578-.0373-.0378-.0345-.0347-.0368-.0372-.035-.0352-.0348-.035-.0362-.0365-.0357-.0358-.0347-.0349-.0378-.0378L212.1627,39l-.0484-.0484-.0531-.0532-.0355-.0355-.04-.04-.0307-.0307-.039-.0387-.0323-.0322-.0388-.0387-.0318-.0316-.0386-.0383-.0322-.032-.0392-.0389-.0344-.0341-.0671-.0664-.0346-.0343-.0381-.0376-.0337-.0332-.0382-.0378-.0321-.0315-.039-.0384-.0333-.0328-.0378-.0372-.0344-.0338-.0364-.0357-.0449-.044-.0492-.0483-.0452-.0442-.0346-.0338-.0367-.0359-.0358-.0349-.036-.0351-.0373-.0364-.0336-.0327-.0377-.0367-.0344-.0334-.0382-.0371-.0374-.0363-.06-.058-.0411-.04-.0351-.0339-.0382-.0369-.0354-.0342-.0354-.0342-.0376-.0363-.0355-.0342-.0365-.0351-.0369-.0355-.0348-.0335-.0476-.0456-.042-.04-.0516-.0493-.0332-.0319-.04-.0386-.0316-.03-.0414-.0395-.0338-.0323-.039-.0372-.0337-.032-.04-.0378-.0341-.0324-.0462-.0439-.0369-.035-.0582-.0552-.0351-.0333-.038-.0359-.0371-.0351-.0345-.0326-.0386-.0365-.0355-.0335-.0377-.0355-.0345-.0324-.0383-.0361-.0381-.0358-.058-.0545-.0453-.0425-.0359-.0337-.0377-.0353-.036-.0336-.037-.0346-.0374-.035-.0371-.0346-.0351-.0327-.0393-.0367-.0356-.0331-.0425-.0395-.03-.0279-.07-.0651-.0326-.03-.0419-.0389-.034-.0315-.0391-.0361-.0356-.033-.04-.0369-.0334-.0309-.0425-.0392-.0314-.0289-.0483-.0445-.0264-.0242-.07-.0647-.034-.0312-.04-.0371-.0338-.0309-.0413-.0378-.0342-.0313-.0406-.0371-.0335-.0306-.0433-.0395-.0313-.0285-.0567-.0517-.0164-.0149-.0738-.0671-.0264-.0239-.0486-.0441-.0318-.0288-.0419-.038-.0346-.0313-.0415-.0375-.0332-.03-.0438-.0394-.0308-.0278-.0507-.0457-.0245-.0221-.0732-.0659-.025-.0224-.05-.0445-.0321-.0288-.0428-.0384-.0345-.0309-.0409-.0365-.0342-.0306-.0419-.0374-.034-.03-.0492-.0438-.0247-.022-.0743-.0661-.0215-.0191-.0545-.0484-.0294-.0261-.045-.04-.0333-.0295-.0439-.0389-.0314-.0278-.0465-.041-.0293-.0259-.0523-.0462-.024-.0211-.0742-.0653-.0218-.0192-.0549-.0483-.0265-.0232-.05-.0439-.0294-.0259-.0469-.041-.03-.0266-.0471-.0411-.03-.0262-.0583-.0508-.0162-.0141-.0775-.0676-.012-.01-.0655-.057-.0218-.019-.0545-.0472-.0261-.0227-.0539-.0467-.023-.02-.0553-.0477-.0234-.02-.0613-.053-.0157-.0135-.0789-.068-.0017-.0015-.0753-.0647-.02-.0169-.0578-.05-.0252-.0216-.0529-.0454-.0248-.0213-.0545-.0466-.0245-.021-.0631-.0539-.0131-.0111-.1584-.135-.0173-.0146-.0587-.05-.0261-.0222-.054-.0458-.0241-.02-.0565-.0478-.0214-.0181-.0644-.0545-.0141-.0119-.158-.1331-.0181-.0152-.0606-.051-.0231-.0194-.0561-.047-.0232-.0194-.0574-.0482-.0221-.0184-.0676-.0566-.0094-.0078-.1619-.135-.0117-.01-.0659-.0548-.0213-.0177-.06-.05-.0192-.0159-.0624-.0517-.0174-.0144-.0739-.0611-.0043-.0036-.165-.136-.0051-.0042-.0739-.0608-.0161-.0133-.0637-.0523-.0189-.0155-.0616-.05-.02-.0164-.069-.0564-.0093-.0076-.1654-.1349-.0017-.0015-.0771-.0626-.0157-.0128-.0655-.0532-.0169-.0137-.067-.0543-.0132-.0107-.0776-.0628-.0023-.0019q-.1249-.1009-.25-.2017l-.0066-.0052-.0749-.06-.0106-.0086-.0721-.0577-.0111-.009c-.11-.0881-.2212-.1768-.3315-.2646l-.0027-.0022ZM151.7334,5.9335l-6.8678,31.2543.5884.1314,7.07-31.2093q-.3384-.0766-.6774-.1515l-.0149-.0033-.098-.0216Z" style="fill: #8fa3a2"/>
</svg>
